<?xml version="1.0" encoding="utf-8"?>
<!-- Generator: Adobe Illustrator 16.0.0, SVG Export Plug-In . SVG Version: 6.00 Build 0)  -->
<!DOCTYPE svg PUBLIC "-//W3C//DTD SVG 1.1//EN" "http://www.w3.org/Graphics/SVG/1.1/DTD/svg11.dtd" [
	<!ENTITY ns_extend "http://ns.adobe.com/Extensibility/1.0/">
	<!ENTITY ns_ai "http://ns.adobe.com/AdobeIllustrator/10.0/">
	<!ENTITY ns_graphs "http://ns.adobe.com/Graphs/1.0/">
	<!ENTITY ns_vars "http://ns.adobe.com/Variables/1.0/">
	<!ENTITY ns_imrep "http://ns.adobe.com/ImageReplacement/1.0/">
	<!ENTITY ns_sfw "http://ns.adobe.com/SaveForWeb/1.0/">
	<!ENTITY ns_custom "http://ns.adobe.com/GenericCustomNamespace/1.0/">
	<!ENTITY ns_adobe_xpath "http://ns.adobe.com/XPath/1.0/">
]>
<svg version="1.1" id="Layer_1" xmlns:x="&ns_extend;" xmlns:i="&ns_ai;" xmlns:graph="&ns_graphs;"
	 xmlns="http://www.w3.org/2000/svg" xmlns:xlink="http://www.w3.org/1999/xlink" x="0px" y="0px" width="32px" height="33px"
	 viewBox="0 0 32 33" enable-background="new 0 0 32 33" xml:space="preserve">
<metadata>
	<sfw  xmlns="&ns_sfw;">
		<slices></slices>
		<sliceSourceBounds  width="32.001" height="32.193" y="-1.006" x="0" bottomLeftOrigin="true"></sliceSourceBounds>
	</sfw>
</metadata>
<circle fill="none" cx="17.329" cy="28.026" r="1.123"/>
<path fill="none" d="M6.845,7.467l3.528,20.009l13.318-2.349l-3.528-20.01L6.845,7.467z M18.441,16.774l1.106-0.858
	c0.22-0.169,0.533-0.13,0.702,0.088c0.17,0.218,0.13,0.533-0.089,0.702l-0.675,0.523l0.5,0.219c0.323,0.142,0.473,0.519,0.329,0.843
	c-0.141,0.324-0.518,0.473-0.842,0.331l-0.616-0.27l0.159,1.158c0.037,0.273-0.153,0.526-0.428,0.563
	c-0.274,0.038-0.526-0.155-0.563-0.428l-0.242-1.763l-1.803-0.787l0.235,2.106l1.45,0.592c0.256,0.104,0.379,0.396,0.272,0.652
	c-0.103,0.256-0.395,0.379-0.651,0.273l-0.943-0.385l0.062,0.549c0.039,0.353-0.214,0.669-0.565,0.708
	c-0.351,0.039-0.667-0.214-0.706-0.564l-0.059-0.509l-0.79,0.612c-0.219,0.17-0.532,0.13-0.702-0.089
	c-0.169-0.219-0.129-0.532,0.089-0.701l1.271-0.987l-0.237-2.115l-1.605,1.186l0.196,1.741c0.03,0.275-0.167,0.522-0.441,0.554
	c-0.275,0.031-0.522-0.167-0.553-0.44l-0.132-1.17l-0.534,0.394c-0.284,0.211-0.686,0.149-0.895-0.135
	c-0.21-0.284-0.15-0.686,0.135-0.896l0.399-0.294l-0.773-0.338c-0.252-0.11-0.368-0.405-0.258-0.658
	c0.111-0.253,0.406-0.37,0.659-0.258l1.303,0.567l1.738-1.283l-1.686-0.736l-1.402,1.034c-0.223,0.164-0.536,0.117-0.7-0.105
	c-0.164-0.223-0.116-0.536,0.105-0.699l0.938-0.691l-0.75-0.328c-0.324-0.141-0.472-0.518-0.33-0.842
	c0.141-0.324,0.518-0.473,0.842-0.33l0.608,0.264l-0.096-0.849c-0.03-0.275,0.167-0.522,0.442-0.553
	c0.274-0.031,0.522,0.166,0.552,0.44l0.16,1.424l1.829,0.798l-0.207-1.84l-1.444-0.63c-0.253-0.11-0.369-0.406-0.258-0.659
	c0.11-0.253,0.405-0.369,0.658-0.258l0.915,0.4l-0.09-0.801c-0.039-0.353,0.212-0.669,0.564-0.708
	c0.351-0.039,0.668,0.214,0.708,0.565l0.092,0.812l0.821-0.606c0.223-0.165,0.536-0.117,0.7,0.105s0.116,0.536-0.105,0.7
	l-1.287,0.949l0.206,1.829l1.587-1.171l-0.189-1.376c-0.037-0.275,0.155-0.527,0.429-0.564c0.274-0.037,0.526,0.154,0.563,0.427
	l0.115,0.836l0.563-0.416c0.285-0.209,0.686-0.149,0.895,0.135c0.211,0.284,0.149,0.686-0.135,0.895l-0.675,0.498l1.093,0.447
	c0.256,0.104,0.379,0.396,0.274,0.651c-0.104,0.256-0.396,0.379-0.652,0.275l-1.658-0.677l-1.45,1.07L18.441,16.774z"/>
<circle fill="none" cx="10.355" cy="4.495" r="0.392"/>
<path fill="none" d="M12.099,4.585l2.725-0.479c0.319-0.057,0.548-0.276,0.511-0.488c-0.037-0.213-0.328-0.34-0.646-0.284
	l-2.725,0.48c-0.319,0.057-0.549,0.277-0.511,0.489C11.489,4.515,11.781,4.642,12.099,4.585z"/>
<path fill="none" d="M4.112,0l0.184,0.953C2.078,1.38,0.62,3.524,1.045,5.729L0.091,5.913C-0.435,3.183,1.368,0.531,4.11,0H0v32.193
	h26.296l-0.184-0.953c2.217-0.428,3.675-2.571,3.25-4.776l0.954-0.184c0.526,2.73-1.276,5.384-4.021,5.913H32V0H4.112z M3.101,3.636
	c-0.354,0.522-0.484,1.15-0.365,1.769L1.782,5.589C1.434,3.785,2.625,2.034,4.436,1.685L4.62,2.639
	C3.996,2.759,3.457,3.112,3.101,3.636z M24.222,28.853l-13.231,2.333c-1.422,0.251-2.792-0.709-3.042-2.131L3.943,6.346
	c-0.25-1.422,0.708-2.792,2.131-3.042l13.23-2.333c1.423-0.251,2.792,0.708,3.043,2.13l4.005,22.71
	C26.604,27.232,25.645,28.602,24.222,28.853z M25.971,30.508l-0.184-0.954c0.624-0.119,1.164-0.474,1.519-0.997
	c0.355-0.521,0.486-1.15,0.366-1.77l0.953-0.184C28.973,28.408,27.782,30.159,25.971,30.508z M31.909,6.975l-4.563,15.398
	l-0.974-5.52l2.72-9.174l-4.576-1.356l-0.343-1.945l0.548,0.162c0.31,0.092,0.609,0.012,0.665-0.178s-0.15-0.42-0.461-0.512
	l-0.892-0.264l-0.134-0.759c-0.051-0.283-0.127-0.553-0.229-0.811l6.405,1.898C31.461,4.327,32.286,5.703,31.909,6.975z"/>
<path fill="#FFFFFF" d="M30.076,3.917l-6.405-1.898c0.102,0.257,0.178,0.528,0.229,0.811l0.134,0.759l0.892,0.264
	c0.311,0.092,0.517,0.322,0.461,0.512s-0.355,0.27-0.665,0.178l-0.548-0.162l0.343,1.945l4.576,1.356l-2.72,9.174l0.974,5.52
	l4.563-15.398C32.286,5.703,31.461,4.327,30.076,3.917z"/>
<path fill="#FFFFFF" d="M26.353,25.81L22.348,3.1c-0.251-1.422-1.62-2.381-3.043-2.13L6.074,3.303
	c-1.422,0.25-2.381,1.62-2.131,3.042l4.005,22.709c0.25,1.422,1.62,2.382,3.042,2.131l13.231-2.333
	C25.645,28.602,26.604,27.232,26.353,25.81z M11.963,3.813l2.725-0.48c0.318-0.056,0.609,0.071,0.646,0.284
	c0.037,0.212-0.192,0.431-0.511,0.488l-2.725,0.479c-0.318,0.057-0.609-0.071-0.646-0.283C11.415,4.09,11.644,3.871,11.963,3.813z
	 M10.287,4.11c0.213-0.038,0.417,0.104,0.454,0.318c0.038,0.212-0.104,0.416-0.317,0.453C10.21,4.919,10.007,4.777,9.97,4.564
	C9.932,4.35,10.074,4.146,10.287,4.11z M17.523,29.132c-0.611,0.109-1.193-0.299-1.301-0.911c-0.108-0.609,0.3-1.193,0.911-1.301
	c0.61-0.108,1.194,0.301,1.301,0.912C18.544,28.443,18.135,29.026,17.523,29.132z M10.374,27.476L6.845,7.467l13.318-2.349
	l3.528,20.01L10.374,27.476z"/>
<path fill="#FFFFFF" d="M19.6,15.529c0.257,0.104,0.548-0.019,0.652-0.275c0.104-0.255-0.019-0.547-0.274-0.651l-1.093-0.447
	l0.675-0.498c0.284-0.209,0.346-0.611,0.135-0.895c-0.209-0.285-0.609-0.345-0.895-0.135l-0.563,0.416l-0.115-0.836
	c-0.037-0.273-0.289-0.464-0.563-0.427c-0.273,0.037-0.466,0.289-0.429,0.564l0.189,1.376l-1.587,1.171l-0.206-1.829l1.287-0.949
	c0.222-0.164,0.27-0.478,0.105-0.7s-0.478-0.27-0.7-0.105l-0.821,0.606l-0.092-0.812c-0.039-0.351-0.356-0.604-0.708-0.565
	c-0.352,0.039-0.604,0.356-0.564,0.708l0.09,0.801l-0.915-0.4c-0.253-0.11-0.548,0.005-0.658,0.258
	c-0.111,0.253,0.005,0.548,0.258,0.659l1.444,0.63l0.207,1.84l-1.829-0.798l-0.16-1.424c-0.03-0.274-0.278-0.471-0.552-0.44
	c-0.275,0.031-0.472,0.278-0.442,0.553l0.096,0.849l-0.608-0.264c-0.324-0.143-0.701,0.006-0.842,0.33
	c-0.142,0.324,0.006,0.701,0.33,0.842l0.75,0.328l-0.938,0.691c-0.222,0.164-0.269,0.477-0.105,0.699
	c0.165,0.223,0.478,0.27,0.7,0.105l1.402-1.034l1.686,0.736l-1.738,1.283l-1.303-0.567c-0.253-0.112-0.548,0.005-0.659,0.258
	c-0.11,0.253,0.005,0.548,0.258,0.658l0.773,0.338l-0.399,0.294c-0.285,0.21-0.345,0.611-0.135,0.896
	c0.209,0.284,0.611,0.346,0.895,0.135l0.534-0.394l0.132,1.17c0.03,0.273,0.278,0.472,0.553,0.44
	c0.274-0.031,0.472-0.278,0.441-0.554l-0.196-1.741l1.605-1.186l0.237,2.115l-1.271,0.987c-0.218,0.169-0.258,0.482-0.089,0.701
	c0.169,0.219,0.483,0.259,0.702,0.089l0.79-0.612l0.059,0.509c0.039,0.351,0.355,0.604,0.706,0.564
	c0.352-0.039,0.604-0.355,0.565-0.708l-0.062-0.549l0.943,0.385c0.257,0.105,0.549-0.018,0.651-0.273
	c0.106-0.256-0.017-0.548-0.272-0.652l-1.45-0.592l-0.235-2.106l1.803,0.787l0.242,1.763c0.037,0.272,0.289,0.466,0.563,0.428
	c0.274-0.037,0.465-0.29,0.428-0.563l-0.159-1.158l0.616,0.27c0.324,0.142,0.701-0.007,0.842-0.331
	c0.144-0.324-0.006-0.701-0.329-0.843l-0.5-0.219l0.675-0.523c0.219-0.169,0.259-0.483,0.089-0.702
	c-0.169-0.219-0.482-0.258-0.702-0.088l-1.106,0.858l-1.95-0.852l1.45-1.07L19.6,15.529z"/>
<path fill="#FFFFFF" d="M0.091,5.913l0.954-0.184C0.62,3.524,2.078,1.38,4.296,0.953L4.112,0H4.11
	C1.368,0.531-0.435,3.183,0.091,5.913z"/>
<path fill="#FFFFFF" d="M4.436,1.685C2.625,2.034,1.434,3.785,1.782,5.589l0.954-0.184C2.617,4.786,2.747,4.158,3.101,3.636
	C3.457,3.112,3.996,2.759,4.62,2.639L4.436,1.685z"/>
<path fill="#FFFFFF" d="M30.316,26.28l-0.954,0.184c0.425,2.205-1.033,4.349-3.25,4.776l0.184,0.953
	C29.04,31.664,30.843,29.01,30.316,26.28z"/>
<path fill="#FFFFFF" d="M27.672,26.788c0.12,0.619-0.011,1.248-0.366,1.77c-0.354,0.523-0.895,0.878-1.519,0.997l0.184,0.954
	c1.812-0.35,3.002-2.101,2.654-3.904L27.672,26.788z"/>
</svg>
