<?xml version="1.0" encoding="utf-8"?>
<!-- Generator: Adobe Illustrator 16.0.0, SVG Export Plug-In . SVG Version: 6.00 Build 0)  -->
<!DOCTYPE svg PUBLIC "-//W3C//DTD SVG 1.1//EN" "http://www.w3.org/Graphics/SVG/1.1/DTD/svg11.dtd" [
	<!ENTITY ns_extend "http://ns.adobe.com/Extensibility/1.0/">
	<!ENTITY ns_ai "http://ns.adobe.com/AdobeIllustrator/10.0/">
	<!ENTITY ns_graphs "http://ns.adobe.com/Graphs/1.0/">
	<!ENTITY ns_vars "http://ns.adobe.com/Variables/1.0/">
	<!ENTITY ns_imrep "http://ns.adobe.com/ImageReplacement/1.0/">
	<!ENTITY ns_sfw "http://ns.adobe.com/SaveForWeb/1.0/">
	<!ENTITY ns_custom "http://ns.adobe.com/GenericCustomNamespace/1.0/">
	<!ENTITY ns_adobe_xpath "http://ns.adobe.com/XPath/1.0/">
]>
<svg version="1.1" id="Layer_2" xmlns:x="&ns_extend;" xmlns:i="&ns_ai;" xmlns:graph="&ns_graphs;"
	 xmlns="http://www.w3.org/2000/svg" xmlns:xlink="http://www.w3.org/1999/xlink" x="0px" y="0px" width="46px" height="46px"
	 viewBox="0 0 46 46" enable-background="new 0 0 46 46" xml:space="preserve">
<metadata>
	<sfw  xmlns="&ns_sfw;">
		<slices></slices>
		<sliceSourceBounds  width="28" height="23" y="631" x="1144" bottomLeftOrigin="true"></sliceSourceBounds>
	</sfw>
</metadata>
<path fill="#FFFFFF" d="M38,14.723c-1.029,0.462-2.137,0.774-3.299,0.914c1.186-0.718,2.096-1.856,2.525-3.212
	c-1.11,0.665-2.34,1.147-3.648,1.409C32.531,12.705,31.038,12,29.385,12c-3.172,0-5.744,2.6-5.744,5.806
	c0,0.456,0.051,0.899,0.149,1.324c-4.774-0.242-9.007-2.554-11.841-6.067c-0.494,0.858-0.777,1.855-0.777,2.919
	c0,2.016,1.014,3.792,2.555,4.833c-0.94-0.029-1.826-0.291-2.602-0.726c0,0.023,0,0.048,0,0.073c0,2.812,1.98,5.159,4.607,5.692
	c-0.481,0.133-0.989,0.204-1.514,0.204c-0.369,0-0.73-0.037-1.08-0.104c0.731,2.306,2.853,3.984,5.366,4.031
	c-1.966,1.558-4.442,2.486-7.135,2.486c-0.463,0-0.92-0.028-1.37-0.082C12.542,34.039,15.562,35,18.807,35
	c10.565,0,16.344-8.848,16.344-16.521c0-0.252-0.006-0.502-0.017-0.752C36.256,16.91,37.23,15.887,38,14.723"/>
</svg>
