<?xml version="1.0" encoding="utf-8"?>
<!-- Generator: Adobe Illustrator 16.0.0, SVG Export Plug-In . SVG Version: 6.00 Build 0)  -->
<!DOCTYPE svg PUBLIC "-//W3C//DTD SVG 1.1//EN" "http://www.w3.org/Graphics/SVG/1.1/DTD/svg11.dtd" [
	<!ENTITY ns_extend "http://ns.adobe.com/Extensibility/1.0/">
	<!ENTITY ns_ai "http://ns.adobe.com/AdobeIllustrator/10.0/">
	<!ENTITY ns_graphs "http://ns.adobe.com/Graphs/1.0/">
	<!ENTITY ns_vars "http://ns.adobe.com/Variables/1.0/">
	<!ENTITY ns_imrep "http://ns.adobe.com/ImageReplacement/1.0/">
	<!ENTITY ns_sfw "http://ns.adobe.com/SaveForWeb/1.0/">
	<!ENTITY ns_custom "http://ns.adobe.com/GenericCustomNamespace/1.0/">
	<!ENTITY ns_adobe_xpath "http://ns.adobe.com/XPath/1.0/">
]>
<svg version="1.1" id="Layer_2" xmlns:x="&ns_extend;" xmlns:i="&ns_ai;" xmlns:graph="&ns_graphs;"
	 xmlns="http://www.w3.org/2000/svg" xmlns:xlink="http://www.w3.org/1999/xlink" x="0px" y="0px" width="46px" height="46px"
	 viewBox="0 0 46 46" enable-background="new 0 0 46 46" xml:space="preserve">
<metadata>
	<sfw  xmlns="&ns_sfw;">
		<slices></slices>
		<sliceSourceBounds  width="25" height="25" y="631" x="1145" bottomLeftOrigin="true"></sliceSourceBounds>
	</sfw>
</metadata>
<path fill="#FFFFFF" d="M33.222,26.912c0,0-2.777,3.184-2.777,5.146c0,1.625,1.243,2.941,2.777,2.941C34.757,35,36,33.684,36,32.059
	C36,30.096,33.222,26.912,33.222,26.912 M17.415,10l-1.965,2.081l3.306,3.5l-7.146,7.565c-0.812,0.86-0.812,2.258,0,3.118
	l7.64,8.088C19.652,34.787,20.186,35,20.721,35s1.07-0.213,1.473-0.647l7.64-8.088c0.812-0.86,0.812-2.258,0-3.118L17.415,10z
	 M14.061,24.706l6.66-7.044l6.66,7.044H14.061z"/>
</svg>
