<?xml version="1.0" encoding="utf-8"?>
<!-- Generator: Adobe Illustrator 16.0.0, SVG Export Plug-In . SVG Version: 6.00 Build 0)  -->
<!DOCTYPE svg PUBLIC "-//W3C//DTD SVG 1.1//EN" "http://www.w3.org/Graphics/SVG/1.1/DTD/svg11.dtd" [
	<!ENTITY ns_extend "http://ns.adobe.com/Extensibility/1.0/">
	<!ENTITY ns_ai "http://ns.adobe.com/AdobeIllustrator/10.0/">
	<!ENTITY ns_graphs "http://ns.adobe.com/Graphs/1.0/">
	<!ENTITY ns_vars "http://ns.adobe.com/Variables/1.0/">
	<!ENTITY ns_imrep "http://ns.adobe.com/ImageReplacement/1.0/">
	<!ENTITY ns_sfw "http://ns.adobe.com/SaveForWeb/1.0/">
	<!ENTITY ns_custom "http://ns.adobe.com/GenericCustomNamespace/1.0/">
	<!ENTITY ns_adobe_xpath "http://ns.adobe.com/XPath/1.0/">
]>
<svg version="1.1" id="Layer_2" xmlns:x="&ns_extend;" xmlns:i="&ns_ai;" xmlns:graph="&ns_graphs;"
	 xmlns="http://www.w3.org/2000/svg" xmlns:xlink="http://www.w3.org/1999/xlink" x="0px" y="0px" width="152px" height="85px"
	 viewBox="0 0 152 85" enable-background="new 0 0 152 85" xml:space="preserve">
<metadata>
	<sfw  xmlns="&ns_sfw;">
		<slices></slices>
		<sliceSourceBounds  width="152" height="85" y="606" x="1075.5" bottomLeftOrigin="true"></sliceSourceBounds>
	</sfw>
</metadata>
<g id="shadow">
	<path fill="none" d="M64.97,71.818c0.027-0.002,0.057-0.004,0.09-0.006c0.032-0.004,0.067-0.008,0.107-0.012
		c0.039-0.005,0.079-0.01,0.125-0.017c0.008-0.001,0.017-0.003,0.025-0.003l-0.087-0.424h-0.972l-0.133,1.951l0.936,3.957h1.009
		l-1.168-5.443C64.922,71.82,64.944,71.82,64.97,71.818z"/>
	<polygon fill="none" points="64.499,47.699 56.511,47.699 56.486,47.877 64.487,47.877 	"/>
	<path fill="none" d="M66.459,71.357h-0.624l0.069,0.348c0.034-0.004,0.068-0.008,0.101-0.014c0.048-0.006,0.096-0.012,0.142-0.02
		c0.048-0.006,0.095-0.013,0.14-0.02c0.047-0.004,0.093-0.01,0.138-0.018c0.045-0.007,0.088-0.013,0.127-0.018
		c0.038-0.004,0.074-0.01,0.106-0.014c0.034-0.002,0.063-0.004,0.088-0.006c0.027,0,0.05-0.002,0.07-0.002c0.012,0,0.027,0,0.045,0
		c0.014-0.003,0.034-0.005,0.055-0.007c0.021-0.003,0.045-0.007,0.07-0.013c0.026-0.004,0.052-0.01,0.082-0.016
		c0.029-0.006,0.059-0.013,0.087-0.02c0.027-0.007,0.056-0.014,0.083-0.02c0.028-0.006,0.057-0.014,0.082-0.02
		c0.027-0.006,0.054-0.012,0.081-0.02c0.025-0.006,0.053-0.014,0.081-0.021c0.029-0.009,0.061-0.016,0.095-0.024
		c0.032-0.008,0.065-0.02,0.103-0.029c0.036-0.01,0.074-0.021,0.111-0.035l0.083-2.105h-1.302L66.459,71.357z"/>
	<polygon fill="none" points="32.032,47.795 32.007,47.877 32.109,47.877 	"/>
	<path fill="none" d="M66.707,50.533l-0.363,5.072H54.702l2.763,8.813l-0.214,1.89l-3.504-10.703h-0.271l2.096,6.324l-0.312,2.49
		l-3.091-8.814h-5.186l-1.278-1.769l-0.292,1.456l4.054,9.046h-0.15c-0.006,0.009-0.015,0.021-0.024,0.032s-0.02,0.025-0.033,0.042
		c-0.011,0.017-0.026,0.034-0.042,0.051c-0.014,0.019-0.031,0.037-0.049,0.06c-0.019,0.022-0.038,0.045-0.057,0.069
		c-0.02,0.023-0.039,0.044-0.057,0.069c-0.019,0.023-0.038,0.05-0.058,0.077c-0.019,0.024-0.039,0.049-0.058,0.075
		c-0.021,0.027-0.037,0.055-0.056,0.08c-0.019,0.026-0.037,0.051-0.055,0.075c-0.018,0.026-0.036,0.052-0.053,0.076
		c-0.015,0.024-0.032,0.048-0.048,0.073c-0.002,0.002-0.003,0.004-0.004,0.006l2.909,6.23H49.43l-1.063-2.088H46.81l-1.459-2.709
		c-0.015,0.006-0.032,0.012-0.048,0.018c-0.022,0.008-0.043,0.016-0.062,0.023c-0.019,0.006-0.037,0.012-0.049,0.018
		c-0.015,0.007-0.028,0.011-0.039,0.016c-0.011,0-0.025,0-0.042,0.002c-0.018,0-0.039,0.002-0.063,0.006
		c-0.023,0.002-0.05,0.004-0.082,0.008c-0.032,0.004-0.065,0.008-0.104,0.013c-0.039,0.004-0.078,0.008-0.116,0.013
		c-0.04,0.004-0.08,0.008-0.121,0.014c-0.019,0.002-0.037,0.004-0.057,0.006l0.68,1.229c0.002,0.003,0.004,0.007,0.005,0.011
		c0.001,0.002,0.003,0.006,0.005,0.01s0.004,0.007,0.006,0.012c0.001,0.003,0.003,0.007,0.005,0.011l-1.711,9.298h4.688l0.476-3.709
		h2.896l0.305-2.666h3.091l1.062,2.666h1.61l1.359,3.709h3.817c0.006,0,0.014-0.003,0.022-0.006
		c0.008-0.003,0.018-0.007,0.028-0.015c0.01-0.007,0.021-0.013,0.034-0.021c0.013-0.011,0.026-0.021,0.042-0.033
		c0.014-0.015,0.026-0.027,0.041-0.041c0.014-0.015,0.028-0.027,0.042-0.041c0.014-0.014,0.029-0.024,0.043-0.037
		c0.014-0.014,0.028-0.027,0.042-0.039c0.027-0.033,0.058-0.07,0.088-0.109c0.032-0.039,0.065-0.084,0.098-0.131
		c0.034-0.047,0.071-0.098,0.108-0.152c0.036-0.055,0.075-0.113,0.116-0.174c0.041-0.062,0.075-0.117,0.105-0.166
		c0.031-0.048,0.056-0.09,0.077-0.122c0.018-0.034,0.033-0.062,0.044-0.084c0.01-0.021,0.015-0.034,0.015-0.042l0.154-2.725
		l-2.15-8.975l0.206-2.951h2.623l0.138-2.469h3.505l0.129-3.326h-0.664L66.707,50.533z"/>
	<polygon fill="none" points="25.718,68.979 25.97,68.979 26.468,66.957 26.325,66.957 	"/>
	<path fill="none" d="M31.537,49.486l-0.512,1.744l6.749,10.852l-3.701,15.42h1.554l3.097-16.42l-2.552-4.275l0.021-0.097
		l0.021-0.095c0.008-0.01,0.018-0.021,0.027-0.031c0.01-0.011,0.021-0.023,0.032-0.034c0.011-0.011,0.021-0.022,0.035-0.032
		c0.012-0.012,0.027-0.022,0.041-0.033c0.016-0.012,0.028-0.021,0.042-0.028c0.012-0.009,0.024-0.019,0.035-0.026
		c0.01-0.009,0.019-0.016,0.027-0.021c0.009-0.008,0.017-0.016,0.024-0.021c0.033-0.011,0.069-0.022,0.108-0.037
		c0.037-0.014,0.08-0.029,0.126-0.045c0.044-0.018,0.093-0.037,0.146-0.058c0.051-0.021,0.106-0.043,0.166-0.067
		c0.058-0.021,0.112-0.045,0.16-0.063c0.046-0.021,0.088-0.037,0.125-0.052c0.034-0.016,0.065-0.027,0.09-0.037
		s0.043-0.017,0.056-0.021c0.013,0,0.028-0.001,0.049-0.003c0.021-0.001,0.046-0.004,0.075-0.007
		c0.029-0.003,0.061-0.007,0.099-0.012c0.038-0.004,0.08-0.008,0.125-0.015c0.046-0.005,0.093-0.01,0.139-0.016
		c0.048-0.005,0.095-0.011,0.142-0.017c0.048-0.006,0.096-0.01,0.144-0.016c0.049-0.006,0.099-0.01,0.147-0.017
		c0.049-0.005,0.098-0.011,0.145-0.017s0.096-0.011,0.145-0.016c0.046-0.004,0.093-0.009,0.141-0.016
		c0.045-0.004,0.092-0.01,0.138-0.016c0.045-0.005,0.087-0.01,0.125-0.014c0.038-0.003,0.069-0.008,0.099-0.01
		c0.029-0.002,0.054-0.004,0.076-0.006c0.021,0,0.036-0.002,0.048-0.002c0.013-0.006,0.028-0.011,0.046-0.018
		s0.038-0.016,0.061-0.023c0.021-0.006,0.046-0.018,0.073-0.025c0.027-0.01,0.057-0.021,0.089-0.03
		c0.031-0.011,0.06-0.021,0.084-0.03s0.045-0.018,0.062-0.025c0.016-0.008,0.029-0.016,0.037-0.022
		c0.009-0.006,0.014-0.013,0.015-0.018l0.002-0.015h-2.345L31.537,49.486z"/>
	<polygon fill="none" points="93.384,68.908 88.497,68.908 89.032,77.502 94.225,77.502 94.704,76.289 95.298,76.289 95.409,77.502 
		96.204,77.502 94.7,64.77 	"/>
	<polygon fill="none" points="120.425,38.114 120.493,38.026 120.016,36.418 	"/>
	<polygon fill="none" points="117.643,77.502 118.262,77.502 119.762,75.869 119.122,75.869 	"/>
	<polygon fill-opacity="0.3" points="35.222,36.922 37.28,39.895 37.853,37.808 30.606,26.792 30.333,27.764 27.941,24.2 
		27.164,26.792 34.959,37.808 	"/>
	<polygon fill-opacity="0.3" points="98.157,42.288 102.378,32.09 102.077,29.967 99.211,29.967 95.5,40.494 97.907,40.494 	"/>
	<polygon fill-opacity="0.3" points="107.881,56.193 102.788,66.957 105.236,66.957 106.225,72.505 111.998,62.764 110.909,56.809 
		110.797,56.193 	"/>
	<polygon fill-opacity="0.3" points="114.242,50.432 114.243,50.432 114.243,50.432 114.243,50.43 114.243,50.43 110.909,56.809 	
		"/>
	<path fill-opacity="0.3" d="M146.857,77.502c-0.006,0-0.014-0.002-0.022-0.004c-0.009-0.004-0.021-0.009-0.033-0.016
		c-0.012-0.006-0.026-0.016-0.042-0.024c-0.014-0.011-0.029-0.022-0.047-0.036c-0.018-0.012-0.037-0.025-0.055-0.037
		s-0.036-0.025-0.055-0.039c-0.018-0.014-0.033-0.027-0.052-0.041c-0.018-0.014-0.036-0.027-0.054-0.041
		c-0.01-0.014-0.023-0.027-0.037-0.043c-0.014-0.018-0.027-0.037-0.045-0.059s-0.036-0.045-0.057-0.07
		c-0.021-0.023-0.041-0.052-0.065-0.082c-0.021-0.029-0.042-0.059-0.062-0.08c-0.021-0.027-0.039-0.05-0.057-0.072
		c-0.018-0.021-0.033-0.039-0.047-0.058c-0.014-0.015-0.027-0.03-0.039-0.044c-0.002-0.008-0.009-0.023-0.023-0.051
		c-0.012-0.028-0.031-0.066-0.058-0.114c-0.024-0.05-0.052-0.106-0.088-0.179c-0.035-0.07-0.075-0.15-0.122-0.241
		c-0.048-0.092-0.091-0.177-0.13-0.259c-0.042-0.08-0.08-0.158-0.114-0.229c-0.035-0.072-0.066-0.136-0.096-0.199
		c-0.029-0.06-0.057-0.116-0.077-0.168c-0.004-0.012-0.011-0.028-0.021-0.047c-0.008-0.02-0.019-0.043-0.03-0.068
		c-0.013-0.025-0.026-0.053-0.042-0.085c-0.018-0.032-0.034-0.067-0.051-0.105c-0.021-0.04-0.04-0.079-0.061-0.12
		c-0.021-0.039-0.041-0.08-0.061-0.123c-0.021-0.041-0.04-0.082-0.061-0.127c-0.021-0.043-0.041-0.086-0.063-0.131
		s-0.042-0.09-0.062-0.131c-0.021-0.043-0.041-0.086-0.062-0.126c-0.021-0.042-0.041-0.082-0.06-0.123
		c-0.019-0.038-0.037-0.078-0.057-0.116c-0.02-0.039-0.038-0.074-0.055-0.107c-0.018-0.034-0.031-0.065-0.044-0.092
		c-0.011-0.029-0.023-0.057-0.033-0.08c-0.009-0.024-0.019-0.045-0.024-0.062l-5.271,3.832h-3.794c-0.006,0-0.02-0.004-0.038-0.012
		s-0.044-0.021-0.075-0.037c-0.031-0.018-0.068-0.037-0.113-0.062c-0.041-0.022-0.092-0.053-0.148-0.086
		c-0.055-0.033-0.106-0.063-0.156-0.09c-0.048-0.029-0.094-0.055-0.138-0.076c-0.041-0.023-0.081-0.045-0.118-0.061
		c-0.037-0.018-0.069-0.034-0.1-0.047c-0.002-0.006-0.008-0.014-0.014-0.021c-0.007-0.008-0.016-0.018-0.027-0.027
		c-0.011-0.008-0.024-0.021-0.039-0.032c-0.015-0.011-0.031-0.021-0.051-0.035c-0.021-0.015-0.041-0.026-0.059-0.041
		c-0.02-0.013-0.035-0.024-0.05-0.039c-0.015-0.014-0.028-0.024-0.042-0.04c-0.014-0.011-0.025-0.023-0.034-0.038
		c-0.026-0.026-0.06-0.057-0.095-0.092c-0.036-0.033-0.076-0.069-0.122-0.112c-0.044-0.044-0.095-0.089-0.148-0.14
		c-0.053-0.051-0.112-0.104-0.174-0.163s-0.119-0.109-0.168-0.158c-0.052-0.046-0.099-0.088-0.136-0.123
		c-0.041-0.037-0.075-0.065-0.104-0.092c-0.027-0.023-0.05-0.044-0.066-0.059c-0.019-0.019-0.037-0.04-0.06-0.064
		c-0.02-0.023-0.041-0.05-0.063-0.079c-0.022-0.028-0.047-0.062-0.072-0.093c-0.025-0.034-0.05-0.07-0.076-0.109
		c-0.027-0.037-0.054-0.076-0.083-0.115c-0.028-0.039-0.055-0.075-0.083-0.115c-0.001-0.002-0.002-0.004-0.004-0.005l6.592-5.599
		l-0.898-2.893h-3.568l5.027-4.836c0-0.018,0-0.037,0.001-0.059c0.001-0.023,0.002-0.047,0.004-0.076
		c0.002-0.027,0.004-0.06,0.007-0.094c0.002-0.033,0.005-0.07,0.007-0.11c0.001-0.04,0.004-0.079,0.007-0.12
		c0.002-0.032,0.004-0.064,0.006-0.094l4.584-4.449h-13.144l-7.06,8.477l-0.623-2.537l4.606-5.85l-0.053-0.193
		c-0.05-0.01-0.101-0.021-0.147-0.029c-0.05-0.01-0.094-0.017-0.14-0.024c-0.045-0.008-0.087-0.017-0.128-0.022
		c-0.042-0.008-0.081-0.016-0.118-0.021c-0.037-0.005-0.075-0.011-0.112-0.016c-0.039-0.006-0.076-0.01-0.117-0.017
		c-0.037-0.006-0.077-0.011-0.118-0.017c-0.041-0.005-0.078-0.01-0.12-0.016c-0.041-0.006-0.08-0.011-0.115-0.015
		c-0.037-0.004-0.07-0.008-0.104-0.01c-0.031-0.003-0.062-0.004-0.09-0.006c-0.027,0-0.054,0-0.076,0c-0.036,0-0.079,0-0.131-0.001
		c-0.049-0.002-0.105-0.002-0.168-0.004c-0.063-0.002-0.136-0.004-0.211-0.006c-0.078-0.002-0.162-0.004-0.252-0.008
		c-0.093-0.002-0.183-0.005-0.275-0.006c-0.094-0.003-0.188-0.003-0.284-0.005c-0.093-0.001-0.188-0.002-0.287-0.002
		c-0.096,0-0.192-0.001-0.293-0.001c-0.099,0-0.196,0.001-0.294,0.001c-0.096,0-0.191,0.001-0.286,0.002
		c-0.094,0.001-0.188,0.002-0.278,0.005c-0.093,0.001-0.185,0.004-0.272,0.006c-0.088,0.004-0.172,0.006-0.248,0.008
		c-0.077,0.002-0.146,0.004-0.209,0.006c-0.063,0-0.118,0.002-0.167,0.004c-0.048,0.001-0.092,0.001-0.128,0.001
		c-0.015-0.005-0.029-0.011-0.047-0.019c-0.019-0.008-0.036-0.014-0.058-0.021c-0.022-0.01-0.047-0.018-0.072-0.027
		s-0.051-0.021-0.08-0.033c-0.031-0.01-0.059-0.021-0.086-0.031c-0.024-0.012-0.049-0.02-0.071-0.03s-0.044-0.022-0.062-0.033
		c-0.02-0.011-0.037-0.022-0.049-0.034c-0.006,0-0.013-0.002-0.021-0.005c-0.009-0.003-0.019-0.008-0.028-0.015
		c-0.011-0.006-0.023-0.014-0.037-0.024c-0.013-0.01-0.027-0.021-0.043-0.032c-0.013-0.015-0.027-0.027-0.04-0.039
		c-0.014-0.013-0.026-0.022-0.038-0.031c-0.012-0.01-0.022-0.02-0.031-0.026c-0.01-0.007-0.019-0.015-0.025-0.021
		c-0.016-0.01-0.027-0.023-0.043-0.035c-0.016-0.014-0.031-0.031-0.048-0.049c-0.017-0.017-0.033-0.037-0.052-0.058
		c-0.018-0.021-0.032-0.042-0.051-0.065c-0.02-0.022-0.035-0.045-0.049-0.064c-0.013-0.02-0.025-0.037-0.035-0.051
		s-0.017-0.026-0.021-0.037c-0.006-0.01-0.008-0.018-0.01-0.023l-0.006-0.031h4.246l9.682-7.696h-10.326l-0.059-0.231h0.635
		l9.617-9.173h-0.215l4.704-4.502h-3.259l-9.792,9.872h0.21l-1.872,1.879h0.226l-0.592,0.592l-1.994-7.842h-1.037l7.426-9.167
		l-1.561-5.154l-8.314,11.392l0.191,0.651h-2.711l-0.502-2.224h-3.259l-2.035-9.818l-5.663,11.391l1.287,6.35l-2.503,4.317h2.101
		l1.474-2.368h2.062l0.416,1.879h2.276l0.453,1.925h2.303l1.922,7.727l-3.981,6.5l1.087,4.552c0,0.004,0.003,0.011,0.008,0.019
		c0.004,0.009,0.01,0.021,0.019,0.033c0.008,0.012,0.018,0.025,0.028,0.041c0.011,0.018,0.024,0.035,0.038,0.057
		c0.016,0.02,0.031,0.039,0.045,0.057c0.014,0.016,0.028,0.031,0.042,0.046c0.015,0.015,0.027,0.029,0.041,0.041
		c0.011,0.013,0.022,0.022,0.036,0.031c0.005,0.006,0.013,0.011,0.021,0.019c0.008,0.006,0.017,0.014,0.025,0.021
		c0.01,0.006,0.021,0.015,0.031,0.023c0.011,0.01,0.023,0.021,0.035,0.033c0.013,0.012,0.024,0.022,0.035,0.029
		c0.012,0.009,0.022,0.015,0.03,0.021c0.009,0.004,0.017,0.01,0.025,0.012c0.006,0.003,0.013,0.005,0.017,0.005
		c0.014,0.009,0.026,0.019,0.042,0.026c0.015,0.008,0.031,0.019,0.052,0.027c0.019,0.01,0.039,0.018,0.062,0.027
		c0.022,0.008,0.044,0.017,0.069,0.025c0.024,0.01,0.049,0.019,0.07,0.027c0.021,0.008,0.041,0.016,0.057,0.021
		c0.02,0.008,0.035,0.014,0.051,0.019s0.029,0.009,0.04,0.015c0.03,0,0.063,0,0.106,0c0.041,0,0.09-0.002,0.142-0.004
		c0.054-0.002,0.11-0.003,0.175-0.005c0.023-0.001,0.051-0.001,0.075-0.002l-0.898,1.261c-0.007,0.012-0.013,0.022-0.019,0.033
		c-0.004,0.01-0.008,0.02-0.012,0.026c-0.002,0.009-0.004,0.014-0.006,0.021c0,0.006,0,0.012,0,0.016l0.395,1.656
		c-0.027,0.008-0.053,0.017-0.078,0.024c-0.037,0.013-0.07,0.024-0.102,0.039c-0.027,0.011-0.055,0.024-0.078,0.035
		c-0.023,0.01-0.043,0.022-0.062,0.034c-0.018,0.013-0.039,0.025-0.065,0.041c-0.027,0.017-0.062,0.033-0.102,0.053
		c-0.037,0.019-0.082,0.038-0.131,0.059c-0.048,0.022-0.104,0.045-0.164,0.071c-0.058,0.024-0.111,0.046-0.16,0.067
		c-0.046,0.021-0.087,0.041-0.123,0.061c-0.035,0.02-0.063,0.036-0.087,0.052c-0.024,0.013-0.041,0.027-0.052,0.04l-0.189,0.225
		l-0.461,0.634l-0.408-2.222h-3.342l-5.021,7.978h-3.851L98.268,53.71l1.248-2.358l0.592,4.248h8.357l6.242-7.729h-9.966
		l-1.324-9.287h-3.228l-3.883,9.187h2.709l0.015,0.101h-7.644L89.611,24.2l-2.168,11.417l0.099,1.365h-1.216l-1.656,9.437h2.102
		l1.095-5.015l0.474,6.473h-8.826L79.43,38.59h-0.5l0.332-6.5l-0.019-2.124h-2.868L76.36,32.09l-0.038,6.5h-0.121l-0.076,9.287
		h-9.762l-0.037-0.178h0.578l0.381-5.336l-0.316-1.942h0.453l0.342-4.804L66.204,24.2l-0.412,5.68H53.978l-0.319,2.297l2.221,6.321
		h-3.095l-0.351,2.523l2.95,6.855h-8.481l2.461-12.259L44.311,24.2l-4.854,23.677H37.96l0.355-1.379h1.358l-6.943-9.424h-1.619
		l-0.7,2.676h-2.665l-2.301-2.676h-1.363l-3.234,10.803h-9.732l10.465,7.729h7.675l-1.823,7.418l-3.785-4.719
		c-0.015-0.011-0.038-0.022-0.066-0.037c-0.029-0.014-0.062-0.024-0.104-0.041c-0.042-0.016-0.091-0.031-0.145-0.049
		c-0.055-0.017-0.115-0.035-0.183-0.055c-0.067-0.02-0.128-0.033-0.186-0.048c-0.055-0.015-0.108-0.026-0.154-0.035
		c-0.044-0.01-0.085-0.017-0.121-0.022c-0.036-0.004-0.063-0.008-0.088-0.008c-0.012,0-0.027,0-0.047-0.002
		c-0.02-0.001-0.042-0.004-0.068-0.006c-0.025-0.003-0.056-0.007-0.09-0.011c-0.034-0.005-0.07-0.011-0.109-0.017
		c-0.042-0.005-0.085-0.01-0.126-0.017c-0.043-0.005-0.089-0.009-0.133-0.013c-0.046-0.006-0.093-0.012-0.14-0.018
		c-0.048-0.005-0.098-0.01-0.146-0.015c-0.051-0.006-0.1-0.011-0.146-0.017c-0.048-0.006-0.095-0.013-0.142-0.019
		c-0.042-0.005-0.087-0.011-0.131-0.017c-0.013-0.002-0.023-0.004-0.036-0.006l-1.386-1.662h-3.023l-1.88,6.123l6.636,6.662h-8.799
		l-0.797,2.582l-3.307-2.688l-0.117,0.354l-1.297-1.043c-0.012-0.007-0.026-0.015-0.045-0.021s-0.041-0.016-0.066-0.025
		c-0.024-0.008-0.053-0.019-0.086-0.029c-0.033-0.01-0.069-0.022-0.109-0.035c-0.041-0.012-0.08-0.023-0.112-0.033
		c-0.036-0.008-0.068-0.018-0.097-0.025c-0.029-0.01-0.053-0.019-0.076-0.025c-0.023-0.008-0.043-0.016-0.061-0.021
		c-0.012,0-0.03-0.002-0.052-0.005c-0.02-0.003-0.046-0.008-0.076-0.015c-0.03-0.006-0.065-0.014-0.102-0.022
		c-0.039-0.009-0.082-0.019-0.127-0.03c-0.047-0.011-0.096-0.023-0.145-0.035c-0.048-0.014-0.099-0.025-0.149-0.037
		c-0.052-0.012-0.105-0.025-0.157-0.037c-0.055-0.014-0.11-0.025-0.164-0.038c-0.057-0.009-0.113-0.021-0.166-0.033
		c-0.055-0.011-0.106-0.021-0.159-0.032c-0.053-0.01-0.102-0.021-0.152-0.029c-0.05-0.012-0.098-0.021-0.145-0.029
		c-0.049-0.01-0.093-0.02-0.13-0.027c-0.039-0.007-0.073-0.015-0.103-0.022c-0.027-0.007-0.052-0.015-0.072-0.021
		s-0.035-0.013-0.045-0.02l3.539,2.78l-1.489,4.539c-0.005,0.013-0.012,0.031-0.021,0.056C6.735,74.934,6.72,74.963,6.702,75
		c-0.019,0.033-0.041,0.075-0.066,0.123c-0.025,0.044-0.051,0.098-0.083,0.157c-0.034,0.057-0.065,0.112-0.096,0.165
		c-0.029,0.05-0.059,0.099-0.087,0.145c-0.028,0.043-0.055,0.086-0.079,0.125c-0.026,0.038-0.051,0.073-0.075,0.105
		c-0.012,0.014-0.024,0.029-0.039,0.048c-0.014,0.017-0.028,0.036-0.044,0.056c-0.017,0.021-0.035,0.044-0.055,0.069
		c-0.02,0.026-0.042,0.054-0.063,0.082c-0.023,0.028-0.045,0.056-0.064,0.079c-0.02,0.023-0.037,0.044-0.054,0.061
		c-0.016,0.018-0.03,0.033-0.041,0.045c-0.013,0.014-0.023,0.024-0.032,0.03c-0.026,0.019-0.056,0.041-0.087,0.062
		C5.708,76.376,5.674,76.4,5.638,76.43c-0.036,0.028-0.073,0.059-0.113,0.088c-0.041,0.032-0.084,0.067-0.127,0.104
		c-0.045,0.035-0.091,0.07-0.134,0.105c-0.046,0.037-0.091,0.068-0.137,0.104c-0.043,0.034-0.088,0.067-0.133,0.103
		c-0.043,0.032-0.088,0.065-0.132,0.1c-0.042,0.033-0.09,0.066-0.141,0.103c-0.049,0.036-0.103,0.074-0.16,0.112
		c-0.055,0.039-0.115,0.08-0.179,0.124c-0.061,0.041-0.127,0.087-0.195,0.132H0l12.268,7.434h3.51
		c0.057-0.039,0.112-0.078,0.165-0.112c0.052-0.034,0.102-0.068,0.149-0.103c0.045-0.035,0.091-0.065,0.133-0.095
		c0.04-0.03,0.08-0.06,0.117-0.088c0.037-0.028,0.073-0.054,0.11-0.083c0.038-0.029,0.075-0.059,0.11-0.088
		c0.025-0.018,0.051-0.037,0.075-0.057l0.945,0.625h3.244l2.159-7.185h3.067l7.835,7.185H37.8c0.011,0,0.024-0.002,0.04-0.004
		c0.015-0.004,0.032-0.009,0.051-0.013c0.02-0.006,0.04-0.014,0.063-0.021c0.023-0.01,0.049-0.021,0.078-0.031
		c0.027-0.01,0.052-0.021,0.076-0.032s0.046-0.022,0.067-0.03c0.021-0.012,0.04-0.022,0.054-0.035
		c0.017-0.012,0.032-0.021,0.045-0.035l0.021-0.094l0.021-0.103l-0.185-0.231c-0.004-0.01-0.007-0.024-0.01-0.047
		c-0.002-0.021-0.005-0.047-0.007-0.076c-0.002-0.028-0.004-0.064-0.006-0.104c-0.001-0.039-0.002-0.085-0.002-0.136
		c-0.002-0.047-0.002-0.094-0.004-0.137c-0.001-0.043-0.002-0.08-0.002-0.117c-0.001-0.034-0.002-0.067-0.003-0.096
		c-0.001-0.027-0.001-0.055-0.003-0.076c0.003-0.01,0.007-0.022,0.01-0.035c0.004-0.014,0.009-0.023,0.015-0.039
		c0.006-0.016,0.013-0.031,0.021-0.051c0.008-0.016,0.016-0.033,0.026-0.053c0.003-0.006,0.005-0.012,0.008-0.018l1.143,1.215
		c0.006,0.004,0.012,0.008,0.018,0.012c0.064,0.068,0.126,0.135,0.19,0.203c0.009,0.008,0.02,0.02,0.033,0.029
		c0.01,0.01,0.024,0.02,0.04,0.027c0.015,0.01,0.031,0.021,0.049,0.028c0.018,0.011,0.037,0.021,0.057,0.029
		c0.021,0.012,0.042,0.021,0.061,0.028c0.019,0.01,0.036,0.018,0.05,0.021c0.014,0.006,0.027,0.01,0.038,0.012
		c0.008,0.004,0.017,0.004,0.023,0.004h2.271l0.402-2.188l1.631,1.989h8.549l0.39-3.125h2.431l0.25-2.245h1.423l0.955,2.245h0.941
		l1.257,3.125h4.61c0.005,0,0.011,0,0.018-0.004c0.008-0.002,0.016-0.006,0.024-0.012c0.009-0.006,0.019-0.012,0.029-0.02
		c0.01-0.008,0.022-0.018,0.034-0.029c0.01-0.01,0.022-0.021,0.034-0.031c0.012-0.012,0.024-0.022,0.036-0.035
		c0.011-0.01,0.024-0.021,0.036-0.033c0.012-0.01,0.024-0.021,0.036-0.032c0.022-0.027,0.047-0.058,0.074-0.093
		c0.026-0.033,0.054-0.069,0.083-0.108c0.027-0.039,0.058-0.083,0.089-0.127c0.031-0.047,0.062-0.096,0.097-0.147
		c0.034-0.052,0.063-0.1,0.089-0.14c0.024-0.039,0.045-0.073,0.062-0.104c0.017-0.028,0.03-0.053,0.039-0.067
		c0.009-0.019,0.013-0.028,0.013-0.036l0.056-1.017l0.409,1.642c0.005,0.012,0.011,0.021,0.017,0.038
		c0.006,0.017,0.013,0.033,0.021,0.054c0.005,0.02,0.014,0.041,0.021,0.063c0.008,0.022,0.018,0.049,0.027,0.077
		c0.01,0.027,0.021,0.052,0.03,0.072c0.01,0.019,0.021,0.035,0.032,0.049c0.011,0.015,0.021,0.024,0.033,0.031
		c0.009,0.006,0.021,0.01,0.032,0.01h2.473l0.153-3.985l0,0v-0.001l0,0l-0.149-0.921c0.002,0,0.003,0,0.005,0
		c0.025-0.009,0.056-0.019,0.086-0.025c0.03-0.01,0.062-0.02,0.094-0.03l0.141-3.722l-0.961-6.78h1.225l0.279-7.34l-0.637-6.324
		h1.141l0.889,10.597h2.587l-0.41-10.597h2.738l0.064-7.83h2.709l0.067,7.83h4.814l-1.024,8.971l0.104,2.38l1.301-10.763
		l-0.026-0.588h2.424l-1.004,6.476l0.151,2.495l1.475-8.973h0.145l1.269-4.51l0.331,4.51h7.412l-0.865,2.898h-4.585L88.5,68.879
		l-0.236-3.761h-1.652l-0.558,3.065H80.9l-0.08-3.065h-1.393l-0.371,6.315c-0.046,0.021-0.092,0.043-0.134,0.062
		c-0.042,0.021-0.083,0.039-0.121,0.056s-0.071,0.03-0.103,0.043h-0.312h-0.386c-0.046-0.013-0.099-0.024-0.153-0.038
		c-0.057-0.012-0.119-0.024-0.188-0.037c-0.069-0.012-0.143-0.024-0.223-0.037c-0.078-0.013-0.166-0.023-0.256-0.035
		c-0.091-0.012-0.172-0.024-0.242-0.033c-0.072-0.01-0.131-0.018-0.185-0.023c-0.053-0.008-0.092-0.012-0.125-0.016
		c-0.032-0.003-0.055-0.005-0.067-0.005c-0.015-0.006-0.03-0.017-0.045-0.028c-0.019-0.013-0.038-0.027-0.059-0.045
		c-0.021-0.02-0.044-0.042-0.069-0.066c-0.023-0.025-0.051-0.055-0.08-0.084c-0.029-0.031-0.057-0.061-0.082-0.086
		c-0.024-0.027-0.047-0.053-0.069-0.071c-0.022-0.022-0.041-0.042-0.058-0.06s-0.031-0.031-0.043-0.045
		c-0.012-0.019-0.026-0.037-0.042-0.062c-0.015-0.025-0.032-0.053-0.05-0.084c-0.018-0.03-0.037-0.062-0.056-0.102
		c-0.021-0.037-0.042-0.078-0.064-0.121s-0.046-0.086-0.067-0.129c-0.023-0.044-0.046-0.088-0.069-0.131
		c-0.023-0.045-0.045-0.091-0.069-0.137c-0.021-0.043-0.043-0.092-0.066-0.139c-0.022-0.043-0.045-0.09-0.068-0.135
		c-0.021-0.043-0.043-0.088-0.066-0.133c-0.022-0.045-0.045-0.088-0.067-0.131c-0.022-0.044-0.042-0.086-0.064-0.13
		c-0.023-0.042-0.044-0.082-0.063-0.118c-0.018-0.037-0.035-0.07-0.05-0.102c-0.012-0.029-0.025-0.058-0.035-0.082
		c-0.011-0.024-0.02-0.047-0.025-0.065c-0.013,0.007-0.026,0.015-0.039,0.026c-0.013,0.013-0.026,0.027-0.039,0.043
		c-0.013,0.016-0.024,0.037-0.038,0.059c-0.013,0.02-0.026,0.044-0.04,0.072c-0.013,0.027-0.024,0.054-0.034,0.078
		c-0.009,0.022-0.018,0.045-0.024,0.064c-0.006,0.021-0.011,0.038-0.014,0.055c-0.003,0.016-0.005,0.028-0.005,0.039l0,0
		l0.067,3.269c-0.012,0.001-0.024,0.004-0.036,0.004c0,0.013-0.001,0.026-0.002,0.041c-0.002,0.015-0.004,0.031-0.008,0.048
		c-0.003,0.018-0.007,0.037-0.012,0.055c-0.005,0.021-0.012,0.043-0.019,0.063c-0.002,0.013-0.005,0.024-0.007,0.034
		c-0.003,0.013-0.005,0.021-0.006,0.033c-0.002,0.009-0.003,0.019-0.004,0.029c0,0.008-0.001,0.019,0,0.027l0.097,4.373h-5.273
		l1.019,7.434h8.257l0.571-7.434h-0.319l0.213-3.006h0.606l0.065,2.585h4.933l0.504-2.585h0.748l0.636,10.438h4.413l0.406-1.021
		h0.438l0.09,1.021h2.777l1.637-3.318l0.393,3.318h3.512l0.088-0.136c0.018-0.021,0.034-0.041,0.055-0.063
		c0.023-0.024,0.051-0.051,0.08-0.078c0.029-0.025,0.06-0.055,0.095-0.084c0.045-0.041,0.088-0.072,0.126-0.104
		c0.041-0.03,0.08-0.057,0.116-0.08c0.034-0.021,0.067-0.036,0.1-0.053c0.031-0.015,0.06-0.022,0.086-0.029
		c0.013,0,0.029,0.005,0.054,0.013c0.022,0.009,0.053,0.021,0.088,0.037c0.035,0.015,0.078,0.037,0.125,0.062
		c0.048,0.024,0.104,0.055,0.162,0.088c0.062,0.031,0.117,0.062,0.164,0.088c0.049,0.027,0.092,0.052,0.125,0.068
		c0.037,0.018,0.067,0.034,0.092,0.047c0.024,0.012,0.043,0.021,0.054,0.024c0.022,0.008,0.053,0.015,0.091,0.021
		c0.038,0.008,0.081,0.016,0.133,0.023c0.053,0.008,0.109,0.017,0.176,0.024c0.064,0.009,0.139,0.019,0.218,0.029
		c0.079,0.012,0.151,0.021,0.221,0.03c0.065,0.011,0.126,0.021,0.181,0.028c0.055,0.009,0.103,0.017,0.145,0.022
		c0.04,0.008,0.074,0.014,0.105,0.019c0.021,0,0.047,0.001,0.075,0.001c0.03,0.002,0.063,0.002,0.099,0.004
		c0.039,0.002,0.076,0.004,0.121,0.006c0.043,0.002,0.088,0.004,0.141,0.008c0.051,0.002,0.1,0.005,0.154,0.007
		c0.053,0.002,0.104,0.006,0.16,0.009s0.11,0.007,0.168,0.009c0.057,0.003,0.114,0.007,0.176,0.011
		c0.057,0.002,0.115,0.004,0.171,0.006c0.058,0.002,0.114,0.003,0.167,0.004c0.056,0.002,0.109,0.004,0.162,0.004
		C105.117,85,105.168,85,105.218,85c0.052,0,0.097,0,0.14,0s0.084,0,0.119,0c0.037,0,0.069,0,0.1,0c0.029,0,0.055,0,0.078,0
		l2.357-3.066l0.538,3.002h8.558l1.634-1.535l0.366,1.535h3.509l1.581-1.312c0.007,0.008,0.012,0.012,0.02,0.02
		c0.033,0.029,0.072,0.065,0.113,0.105c0.042,0.039,0.09,0.084,0.141,0.133c0.053,0.049,0.104,0.094,0.146,0.137
		c0.046,0.043,0.087,0.08,0.125,0.117c0.037,0.035,0.07,0.068,0.102,0.096c0.03,0.028,0.057,0.056,0.078,0.076
		c0.01,0.012,0.018,0.023,0.028,0.034c0.01,0.011,0.021,0.021,0.034,0.031s0.027,0.022,0.043,0.032
		c0.015,0.012,0.031,0.022,0.047,0.035c0.016,0.011,0.031,0.021,0.044,0.03c0.013,0.011,0.024,0.021,0.032,0.027
		c0.01,0.01,0.018,0.014,0.023,0.021c0.006,0.008,0.008,0.014,0.01,0.019c0.024,0.012,0.053,0.024,0.084,0.039
		c0.03,0.018,0.063,0.034,0.098,0.053c0.037,0.021,0.074,0.039,0.117,0.063c0.039,0.023,0.084,0.05,0.131,0.076
		c0.044,0.027,0.086,0.051,0.123,0.071s0.068,0.038,0.094,0.054c0.025,0.014,0.047,0.023,0.062,0.029
		c0.017,0.008,0.027,0.012,0.032,0.012h8.025l0.871-0.582c0.01,0.013,0.021,0.025,0.032,0.039c0.012,0.019,0.027,0.037,0.045,0.06
		c0.017,0.022,0.035,0.045,0.054,0.067c0.021,0.025,0.038,0.049,0.053,0.071c0.017,0.022,0.032,0.042,0.046,0.06
		c0.014,0.017,0.026,0.031,0.039,0.047c0.012,0.015,0.021,0.027,0.031,0.037c0.015,0.013,0.029,0.023,0.042,0.035
		c0.015,0.013,0.03,0.023,0.045,0.034c0.017,0.009,0.03,0.021,0.045,0.03c0.017,0.012,0.03,0.023,0.044,0.033
		c0.014,0.012,0.028,0.021,0.041,0.029c0.014,0.01,0.025,0.018,0.034,0.021c0.01,0.005,0.021,0.009,0.026,0.012
		c0.009,0.004,0.016,0.004,0.021,0.004h4.312l12.27-7.43H146.857z M25.97,68.979h-0.252l0.607-2.021h0.143L25.97,68.979z
		 M32.032,47.795l0.077,0.082h-0.102L32.032,47.795z M39.756,55.62c-0.001,0.005-0.006,0.011-0.015,0.019
		c-0.008,0.006-0.021,0.014-0.037,0.021c-0.017,0.008-0.037,0.016-0.062,0.025s-0.054,0.02-0.084,0.03
		c-0.032,0.009-0.062,0.021-0.089,0.03c-0.027,0.009-0.052,0.02-0.073,0.025c-0.022,0.009-0.042,0.017-0.061,0.023
		c-0.018,0.007-0.033,0.012-0.046,0.018c-0.013,0-0.028,0.002-0.048,0.002c-0.021,0.002-0.046,0.004-0.076,0.006
		c-0.029,0.003-0.061,0.007-0.099,0.01c-0.038,0.004-0.079,0.009-0.125,0.014c-0.046,0.006-0.093,0.012-0.138,0.016
		c-0.048,0.007-0.095,0.012-0.141,0.016c-0.048,0.005-0.097,0.01-0.145,0.016c-0.048,0.006-0.096,0.01-0.145,0.017
		c-0.048,0.006-0.098,0.011-0.147,0.017c-0.047,0.006-0.096,0.01-0.144,0.016c-0.046,0.006-0.094,0.012-0.142,0.017
		c-0.045,0.006-0.092,0.011-0.139,0.017c-0.045,0.006-0.087,0.01-0.125,0.014c-0.038,0.005-0.069,0.009-0.099,0.012
		c-0.029,0.002-0.055,0.005-0.075,0.007c-0.021,0.001-0.036,0.003-0.049,0.003c-0.013,0.006-0.031,0.012-0.056,0.021
		c-0.025,0.009-0.056,0.021-0.09,0.037c-0.037,0.015-0.079,0.031-0.125,0.052c-0.048,0.021-0.102,0.042-0.16,0.063
		c-0.06,0.023-0.115,0.047-0.166,0.067c-0.054,0.021-0.103,0.04-0.146,0.058c-0.046,0.017-0.089,0.031-0.126,0.045
		c-0.039,0.015-0.075,0.026-0.108,0.037c-0.008,0.006-0.016,0.014-0.024,0.021c-0.009,0.007-0.017,0.014-0.027,0.021
		c-0.01,0.008-0.022,0.018-0.035,0.026c-0.013,0.008-0.026,0.017-0.042,0.028c-0.014,0.01-0.029,0.021-0.041,0.033
		c-0.013,0.01-0.023,0.021-0.035,0.032s-0.022,0.022-0.032,0.034c-0.009,0.01-0.02,0.021-0.027,0.031l-0.021,0.095l-0.021,0.097
		l2.552,4.275l-3.097,16.42h-1.554l3.701-15.42L31.025,51.23l0.512-1.746l5.876,6.121h2.345L39.756,55.62z M56.511,47.699h7.987
		l-0.011,0.178h-8.001L56.511,47.699z M65.061,77.264l-0.936-3.955l0.133-1.953h0.972l0.087,0.425c-0.009,0-0.017,0.002-0.025,0.003
		c-0.046,0.007-0.086,0.012-0.125,0.017c-0.04,0.005-0.075,0.009-0.107,0.011c-0.034,0.002-0.063,0.004-0.09,0.006
		c-0.026,0.002-0.048,0.002-0.068,0.002l1.168,5.443h-1.009V77.264z M67.793,71.375c-0.037,0.014-0.075,0.025-0.111,0.035
		c-0.037,0.011-0.071,0.021-0.103,0.029c-0.034,0.01-0.065,0.017-0.095,0.024c-0.028,0.007-0.056,0.015-0.081,0.021
		c-0.027,0.007-0.054,0.013-0.081,0.02c-0.025,0.006-0.054,0.014-0.082,0.02c-0.028,0.006-0.056,0.012-0.083,0.02
		c-0.029,0.006-0.058,0.012-0.087,0.02c-0.03,0.006-0.056,0.012-0.082,0.016c-0.025,0.005-0.049,0.009-0.07,0.013
		c-0.021,0.002-0.041,0.004-0.055,0.007c-0.018,0-0.033,0-0.045,0c-0.021,0-0.043,0.002-0.07,0.002
		c-0.025,0-0.055,0.002-0.088,0.006c-0.032,0.004-0.068,0.009-0.106,0.014c-0.039,0.005-0.082,0.011-0.127,0.018
		c-0.044,0.008-0.091,0.014-0.138,0.018c-0.044,0.007-0.092,0.014-0.14,0.02c-0.046,0.006-0.094,0.014-0.142,0.02
		c-0.032,0.006-0.066,0.01-0.101,0.014l-0.069-0.348h0.624l0.115-2.088h1.302L67.793,71.375z M68.283,58.932h-3.505L64.641,61.4
		h-2.623l-0.206,2.951l2.15,8.975l-0.154,2.725c0,0.008-0.005,0.021-0.015,0.042c-0.011,0.022-0.026,0.05-0.044,0.084
		c-0.021,0.032-0.046,0.074-0.077,0.122c-0.031,0.047-0.065,0.104-0.105,0.166c-0.041,0.061-0.08,0.119-0.116,0.174
		c-0.037,0.055-0.074,0.105-0.108,0.152c-0.033,0.047-0.065,0.092-0.098,0.131c-0.031,0.039-0.061,0.076-0.088,0.109
		c-0.014,0.012-0.028,0.025-0.042,0.039c-0.014,0.013-0.029,0.023-0.043,0.037c-0.014,0.014-0.028,0.026-0.042,0.041
		c-0.014,0.014-0.026,0.026-0.041,0.041c-0.015,0.013-0.028,0.022-0.042,0.033c-0.012,0.008-0.024,0.016-0.034,0.021
		c-0.01,0.008-0.02,0.012-0.028,0.015c-0.008,0.003-0.016,0.006-0.022,0.006h-3.817l-1.359-3.709h-1.61l-1.062-2.666h-3.091
		l-0.305,2.666h-2.896l-0.476,3.709h-4.688l1.711-9.298c-0.001-0.004-0.003-0.008-0.005-0.011c-0.002-0.004-0.003-0.008-0.006-0.012
		c-0.001-0.004-0.003-0.008-0.005-0.01c-0.001-0.004-0.003-0.008-0.005-0.011l-0.68-1.229c0.02-0.002,0.038-0.004,0.057-0.006
		c0.041-0.006,0.081-0.01,0.121-0.014c0.038-0.005,0.077-0.009,0.116-0.013c0.039-0.005,0.072-0.009,0.104-0.013
		c0.032-0.002,0.059-0.006,0.082-0.008c0.025-0.002,0.046-0.005,0.063-0.006c0.018-0.002,0.032-0.002,0.042-0.002
		c0.01-0.004,0.023-0.009,0.039-0.016c0.013-0.006,0.03-0.012,0.049-0.018c0.019-0.008,0.04-0.016,0.062-0.023
		c0.016-0.006,0.033-0.012,0.048-0.018l1.459,2.709h1.557l1.063,2.088h2.202l-2.909-6.23c0.001-0.001,0.002-0.004,0.004-0.006
		c0.016-0.025,0.033-0.049,0.048-0.073c0.017-0.024,0.035-0.05,0.053-0.076c0.018-0.024,0.036-0.049,0.055-0.075
		c0.019-0.025,0.035-0.053,0.056-0.08c0.019-0.026,0.039-0.051,0.058-0.075c0.02-0.026,0.039-0.052,0.058-0.077
		c0.018-0.025,0.037-0.046,0.057-0.069c0.019-0.024,0.038-0.047,0.057-0.069c0.018-0.021,0.035-0.041,0.049-0.06
		c0.016-0.019,0.03-0.034,0.042-0.051c0.013-0.015,0.024-0.029,0.033-0.042c0.009-0.014,0.018-0.023,0.024-0.032h0.15l-4.054-9.046
		l0.292-1.456l1.278,1.769h5.186l3.091,8.814l0.312-2.49l-2.096-6.324h0.271l3.504,10.703l0.214-1.89l-2.763-8.813h11.642
		l0.363-5.072l1.042,5.072h0.664L68.283,58.932z M95.409,77.502l-0.11-1.213h-0.595l-0.479,1.213h-5.191l-0.535-8.594h4.887
		L94.7,64.77l1.504,12.732H95.409z M118.262,77.502h-0.619l1.479-1.633h0.64L118.262,77.502z M120.425,38.114l-0.409-1.696
		l0.478,1.608L120.425,38.114z"/>
</g>
<g id="type">
	<polygon fill="#FFFFFF" points="64.487,47.877 64.985,41.021 52.433,41.021 52.784,38.498 65.168,38.498 65.627,32.177 
		53.658,32.177 53.978,29.88 65.792,29.88 66.204,24.2 45.896,24.2 41.403,47.877 	"/>
	<polygon fill="#FFFFFF" points="24.083,37.074 25.446,37.074 24.664,39.75 30.412,39.75 31.111,37.074 32.73,37.074 29.994,47.877 
		39.456,47.877 44.311,24.2 35.989,24.2 35.334,26.792 31.892,26.792 31.22,29.259 29.913,29.259 30.606,26.792 27.164,26.792 
		27.941,24.2 19.377,24.2 11.116,47.877 20.849,47.877 	"/>
	<path fill="#FFFFFF" d="M101.354,47.877l-1.166-9.288h3.228l1.323,9.288h9.966l-1.884-9.756h-2.516l-0.207-1.139h2.5l-2.47-12.782
		H89.611l1.773,23.677H101.354z M102.077,29.967l0.301,2.124H99.48l-0.27-2.124H102.077z"/>
	<polygon fill="#FFFFFF" points="116.799,34.179 117.302,36.403 120.014,36.403 120.562,38.682 123.305,38.682 125.695,48.085 
		136.021,48.085 133.143,38.682 135.891,38.682 135.155,36.403 137.867,36.403 137.12,34.179 140.378,34.179 136.909,24.361 
		128.135,24.361 129.693,29.515 127.047,29.515 127.631,31.542 124.775,31.542 124.225,29.515 121.609,29.515 120.284,24.361 
		111.505,24.361 113.54,34.179 	"/>
	<path fill="#FFFFFF" d="M76.126,47.877l0.076-9.288h3.228l0.084,9.288h9.965l-0.582-9.756h-2.518l-0.054-1.139h2.505L88.064,24.2
		H67.548L66.16,47.877H76.126z M76.376,29.967h2.868l0.02,2.124H76.36L76.376,29.967z"/>
	<path fill="#FFFFFF" d="M59.437,53.195H56.78l-0.225,2.232h-2.868l0.259-2.232h-2.625l0.379-2.946h-8.934l-0.765,4.39
		c0.025-0.006,0.056-0.012,0.091-0.019c0.038-0.006,0.081-0.015,0.13-0.022c0.048-0.008,0.104-0.017,0.163-0.027
		c0.062-0.01,0.13-0.021,0.201-0.031c0.075-0.009,0.141-0.02,0.202-0.028c0.058-0.009,0.112-0.018,0.159-0.026
		c0.044-0.008,0.084-0.015,0.117-0.021c0.032-0.007,0.059-0.013,0.076-0.019l0.245-0.188c0.008-0.011,0.017-0.022,0.027-0.037
		c0.008-0.016,0.021-0.032,0.035-0.052c0.014-0.02,0.029-0.042,0.047-0.066c0.017-0.022,0.036-0.05,0.056-0.078
		c0.019-0.029,0.038-0.06,0.059-0.086c0.021-0.03,0.041-0.061,0.062-0.092c0.021-0.029,0.043-0.059,0.064-0.09
		c0.022-0.031,0.045-0.061,0.068-0.093c0.024-0.03,0.046-0.062,0.067-0.093c0.024-0.029,0.046-0.061,0.07-0.088
		c0.023-0.028,0.045-0.058,0.068-0.084c0.021-0.028,0.043-0.054,0.065-0.08c0.021-0.025,0.042-0.049,0.061-0.072
		c0.019-0.021,0.033-0.042,0.048-0.059c0.015-0.019,0.028-0.035,0.04-0.049c0.011-0.015,0.02-0.027,0.028-0.039h0.179
		c-0.001,0.006-0.002,0.012-0.002,0.019c-0.001,0.006-0.001,0.014-0.001,0.022c0,0.008,0.001,0.017,0.001,0.024
		c0.001,0.01,0.002,0.021,0.003,0.03c0.001,0.009,0.003,0.019,0.003,0.027c0.001,0.01,0.001,0.019,0.002,0.026
		c0,0.008,0,0.015-0.001,0.021s-0.001,0.012-0.002,0.016c-0.007,0.011-0.016,0.025-0.027,0.047c-0.01,0.021-0.023,0.044-0.037,0.075
		c-0.014,0.03-0.029,0.065-0.046,0.104c-0.015,0.041-0.034,0.085-0.054,0.134c-0.021,0.049-0.04,0.097-0.058,0.14
		c-0.018,0.041-0.033,0.08-0.048,0.116c-0.012,0.035-0.026,0.065-0.038,0.094c-0.012,0.027-0.023,0.053-0.033,0.074
		c-0.014,0.017-0.03,0.033-0.046,0.055c-0.015,0.021-0.032,0.045-0.046,0.07c-0.017,0.027-0.034,0.055-0.051,0.087
		c-0.017,0.03-0.035,0.065-0.053,0.104c-0.018,0.035-0.034,0.069-0.048,0.099c-0.016,0.028-0.03,0.055-0.042,0.076
		c-0.013,0.021-0.024,0.039-0.034,0.053c-0.009,0.013-0.018,0.022-0.024,0.027c-0.008,0.01-0.018,0.023-0.032,0.039
		c-0.011,0.012-0.028,0.029-0.048,0.049c-0.02,0.018-0.042,0.039-0.069,0.062c-0.025,0.022-0.052,0.047-0.083,0.071
		c-0.031,0.026-0.06,0.051-0.087,0.07c-0.025,0.021-0.049,0.036-0.07,0.049c-0.022,0.012-0.042,0.021-0.059,0.027
		c-0.017,0.008-0.031,0.01-0.041,0.01c-0.033,0.01-0.072,0.021-0.117,0.034c-0.043,0.011-0.094,0.023-0.152,0.034
		c-0.057,0.014-0.121,0.025-0.189,0.039c-0.071,0.011-0.146,0.023-0.229,0.037c-0.082,0.014-0.159,0.025-0.227,0.035
		c-0.071,0.01-0.133,0.019-0.19,0.025c-0.057,0.006-0.105,0.012-0.149,0.016c-0.043,0.004-0.079,0.006-0.108,0.006l-0.215,1.216
		c0.012,0,0.026-0.001,0.042-0.002c0.015-0.001,0.032-0.002,0.05-0.004c0.016-0.002,0.036-0.003,0.058-0.007
		c0.021-0.002,0.044-0.004,0.069-0.006c0.024-0.002,0.046-0.004,0.067-0.006c0.022-0.004,0.042-0.004,0.061-0.006
		c0.019,0,0.036-0.001,0.05-0.002c0.015,0,0.028,0,0.04,0c0.014-0.01,0.034-0.023,0.061-0.039c0.027-0.015,0.058-0.029,0.097-0.047
		c0.04-0.018,0.086-0.035,0.137-0.056c0.053-0.021,0.112-0.043,0.176-0.069c0.063-0.023,0.12-0.044,0.174-0.064
		c0.054-0.021,0.1-0.041,0.142-0.058c0.042-0.018,0.077-0.034,0.109-0.048c0.032-0.014,0.058-0.023,0.077-0.035
		c0.019-0.011,0.042-0.025,0.073-0.043c0.031-0.019,0.067-0.039,0.107-0.062c0.042-0.025,0.09-0.051,0.143-0.082
		c0.051-0.032,0.11-0.066,0.172-0.102c0.063-0.037,0.122-0.072,0.173-0.103c0.053-0.032,0.1-0.058,0.14-0.082
		c0.042-0.024,0.078-0.045,0.108-0.062c0.029-0.019,0.055-0.033,0.074-0.041l-0.029,0.19l-0.033,0.192
		c-0.014,0.021-0.032,0.045-0.052,0.074c-0.021,0.027-0.043,0.061-0.069,0.096c-0.025,0.037-0.052,0.076-0.083,0.119
		c-0.031,0.045-0.064,0.09-0.1,0.143c-0.035,0.052-0.068,0.095-0.098,0.138c-0.031,0.041-0.056,0.078-0.081,0.107
		c-0.024,0.03-0.046,0.058-0.066,0.079c-0.019,0.021-0.036,0.037-0.049,0.048c-0.006,0.003-0.015,0.009-0.028,0.016
		c-0.012,0.007-0.027,0.015-0.045,0.022s-0.039,0.016-0.062,0.025c-0.021,0.01-0.048,0.02-0.077,0.03
		c-0.029,0.011-0.058,0.022-0.083,0.032c-0.024,0.009-0.047,0.02-0.068,0.023c-0.021,0.008-0.041,0.017-0.058,0.022
		c-0.018,0.007-0.03,0.013-0.043,0.019c-0.031,0.006-0.069,0.012-0.113,0.019c-0.043,0.007-0.094,0.014-0.152,0.022
		c-0.056,0.008-0.12,0.017-0.189,0.026c-0.071,0.009-0.146,0.021-0.23,0.032c-0.082,0.008-0.159,0.02-0.228,0.027
		c-0.072,0.008-0.134,0.018-0.192,0.025s-0.107,0.016-0.151,0.021c-0.044,0.007-0.081,0.013-0.111,0.019l-0.336,1.931h3.5
		L44.365,61.4h2.621l-0.423,2.951h-2.661l-0.409,2.61h-3.64l-1.798,10.3h10.192l0.475-3.709h2.896l0.305-2.664h3.091l-0.263,2.664
		h2.936l-0.32,3.709h5.496c0.006,0,0.014-0.001,0.022-0.005c0.008-0.003,0.018-0.008,0.028-0.015
		c0.01-0.008,0.021-0.014,0.034-0.021c0.013-0.01,0.026-0.021,0.042-0.033c0.014-0.014,0.026-0.026,0.041-0.041
		c0.014-0.015,0.028-0.027,0.042-0.041c0.014-0.014,0.029-0.024,0.043-0.039c0.014-0.012,0.028-0.024,0.042-0.039
		c0.027-0.032,0.058-0.069,0.089-0.108c0.032-0.039,0.064-0.084,0.097-0.13c0.034-0.047,0.071-0.1,0.108-0.153
		c0.036-0.053,0.075-0.112,0.116-0.173c0.041-0.062,0.075-0.117,0.105-0.166c0.031-0.048,0.057-0.089,0.077-0.123
		c0.018-0.033,0.033-0.062,0.044-0.083c0.01-0.021,0.015-0.034,0.015-0.042l0.187-3.293c0.005,0.025,0.011,0.057,0.019,0.092
		c0.007,0.036,0.015,0.077,0.023,0.123c0.009,0.045,0.018,0.098,0.028,0.151c0.01,0.058,0.022,0.117,0.035,0.183
		c0.013,0.067,0.026,0.135,0.04,0.204c0.012,0.067,0.025,0.14,0.038,0.208c0.013,0.073,0.025,0.145,0.036,0.221
		c0.012,0.072,0.025,0.149,0.037,0.226c0.013,0.077,0.024,0.151,0.035,0.226c0.012,0.073,0.023,0.147,0.033,0.219
		c0.011,0.074,0.022,0.144,0.03,0.213c0.009,0.068,0.02,0.139,0.029,0.203c0.009,0.068,0.019,0.131,0.025,0.188
		c0.007,0.06,0.013,0.108,0.017,0.156c0.004,0.047,0.007,0.087,0.008,0.124c0.002,0.037,0.002,0.066,0.001,0.093
		c-0.001,0.008-0.002,0.019-0.002,0.026c-0.001,0.014-0.001,0.027-0.002,0.046c-0.001,0.018-0.001,0.039-0.003,0.062
		c0,0.024-0.002,0.049-0.004,0.078c-0.001,0.029-0.002,0.059-0.004,0.092c-0.001,0.028-0.003,0.061-0.005,0.094
		s-0.004,0.064-0.006,0.099c-0.002,0.034-0.004,0.069-0.006,0.104s-0.004,0.069-0.006,0.104s-0.004,0.067-0.006,0.101
		c-0.002,0.032-0.004,0.064-0.006,0.096c-0.001,0.029-0.002,0.061-0.004,0.09s-0.003,0.057-0.005,0.079
		c-0.001,0.024-0.002,0.046-0.003,0.062c-0.001,0.019-0.002,0.033-0.002,0.046c-0.001,0.012-0.001,0.021-0.001,0.024
		c0.006,0.015,0.013,0.028,0.021,0.049c0.008,0.019,0.016,0.039,0.023,0.062c0.009,0.024,0.019,0.047,0.029,0.076
		c0.009,0.026,0.02,0.059,0.032,0.092c0.011,0.031,0.024,0.061,0.034,0.084c0.012,0.024,0.025,0.045,0.038,0.062
		c0.012,0.015,0.025,0.024,0.039,0.034c0.013,0.009,0.026,0.011,0.041,0.011h2.946l0.187-4.729c0-0.006-0.004-0.014-0.013-0.022
		c-0.008-0.008-0.02-0.019-0.037-0.026c-0.016-0.013-0.037-0.023-0.061-0.037c-0.024-0.015-0.05-0.028-0.082-0.045
		c-0.033-0.016-0.062-0.03-0.091-0.043c-0.028-0.015-0.055-0.023-0.08-0.035c-0.026-0.012-0.05-0.022-0.072-0.03
		c-0.021-0.009-0.042-0.017-0.061-0.022c-0.02-0.007-0.044-0.014-0.074-0.021c-0.028-0.007-0.062-0.015-0.101-0.022
		c-0.039-0.009-0.081-0.017-0.129-0.024c-0.049-0.009-0.1-0.017-0.158-0.025c-0.06-0.01-0.117-0.021-0.177-0.03
		c-0.059-0.01-0.117-0.021-0.178-0.033c-0.059-0.01-0.119-0.021-0.178-0.033c-0.061-0.012-0.123-0.024-0.183-0.037
		c-0.061-0.012-0.12-0.023-0.181-0.036s-0.12-0.024-0.18-0.039c-0.058-0.013-0.117-0.024-0.176-0.038
		c-0.058-0.013-0.117-0.025-0.173-0.037c-0.059-0.012-0.112-0.023-0.159-0.033c-0.048-0.01-0.091-0.017-0.129-0.022
		c-0.039-0.006-0.073-0.011-0.103-0.015c-0.03-0.002-0.052-0.004-0.072-0.004c0.02,0,0.042-0.002,0.068-0.002
		c0.027-0.002,0.056-0.004,0.09-0.008c0.032-0.003,0.067-0.007,0.107-0.011c0.039-0.005,0.079-0.01,0.125-0.017
		c0.046-0.008,0.093-0.014,0.138-0.021c0.047-0.006,0.095-0.012,0.141-0.017c0.048-0.006,0.097-0.012,0.144-0.018
		c0.049-0.007,0.098-0.013,0.146-0.02c0.05-0.008,0.099-0.014,0.146-0.02c0.048-0.007,0.096-0.014,0.142-0.02
		c0.047-0.006,0.095-0.012,0.14-0.02c0.047-0.006,0.093-0.013,0.138-0.019c0.045-0.007,0.088-0.013,0.127-0.019
		c0.038-0.004,0.074-0.008,0.107-0.012s0.062-0.006,0.088-0.008c0.026,0,0.05-0.001,0.07-0.001c0.013,0,0.027,0,0.045-0.002
		c0.014-0.001,0.034-0.004,0.055-0.006c0.021-0.003,0.045-0.008,0.07-0.013c0.026-0.004,0.052-0.01,0.082-0.016
		c0.029-0.007,0.058-0.014,0.087-0.02c0.027-0.008,0.056-0.014,0.084-0.02c0.028-0.007,0.056-0.014,0.082-0.02
		c0.027-0.006,0.054-0.012,0.082-0.02c0.024-0.007,0.053-0.013,0.081-0.021c0.029-0.009,0.061-0.015,0.095-0.024
		c0.032-0.009,0.066-0.019,0.103-0.029c0.037-0.01,0.075-0.022,0.112-0.035l0.172-4.411H64.33l0.151-2.611h-2.662l0.206-2.95h2.623
		l0.138-2.47h3.505l0.339-8.683h-8.934L59.437,53.195z"/>
	<path fill="#FFFFFF" d="M30.526,50.43H9.607L4.006,66.214c-0.001,0.006-0.003,0.015-0.004,0.026
		C4.001,66.251,4,66.264,4.001,66.281c0,0.017,0.002,0.035,0.004,0.057s0.004,0.046,0.008,0.071
		c0.003,0.026,0.006,0.052,0.011,0.075c0.004,0.022,0.009,0.043,0.016,0.063c0.006,0.017,0.013,0.035,0.02,0.05
		c0.008,0.017,0.016,0.03,0.023,0.041l0.635,0.896c0.01,0.006,0.025,0.013,0.045,0.021c0.02,0.006,0.044,0.014,0.072,0.021
		c0.029,0.008,0.063,0.016,0.103,0.021c0.037,0.01,0.081,0.019,0.13,0.027c0.048,0.009,0.095,0.02,0.146,0.029
		c0.05,0.009,0.1,0.02,0.152,0.029c0.053,0.012,0.104,0.021,0.159,0.032c0.053,0.013,0.109,0.023,0.166,0.033
		c0.054,0.013,0.109,0.024,0.164,0.038c0.052,0.012,0.105,0.023,0.157,0.036c0.051,0.012,0.102,0.024,0.149,0.036
		c0.049,0.013,0.098,0.025,0.145,0.035c0.045,0.013,0.088,0.022,0.126,0.031c0.037,0.01,0.072,0.018,0.102,0.022
		c0.03,0.007,0.056,0.011,0.076,0.015c0.021,0.003,0.039,0.004,0.052,0.004c0.018,0.008,0.038,0.014,0.06,0.021
		c0.023,0.008,0.047,0.016,0.077,0.025c0.029,0.008,0.061,0.018,0.097,0.025c0.033,0.011,0.072,0.021,0.112,0.034
		c0.041,0.013,0.076,0.024,0.109,0.034c0.033,0.012,0.062,0.021,0.086,0.031c0.026,0.008,0.048,0.017,0.066,0.024
		c0.019,0.008,0.034,0.015,0.045,0.021c-0.021,0.004-0.046,0.012-0.074,0.018c-0.028,0.008-0.058,0.014-0.092,0.021
		c-0.035,0.008-0.073,0.014-0.113,0.023c-0.042,0.008-0.085,0.018-0.132,0.025C6.855,68.28,6.806,68.289,6.757,68.3
		c-0.048,0.009-0.097,0.021-0.148,0.031c-0.048,0.008-0.099,0.021-0.15,0.032C6.41,68.375,6.357,68.387,6.307,68.4
		c-0.053,0.012-0.105,0.024-0.155,0.037C6.1,68.449,6.049,68.46,6,68.475c-0.052,0.01-0.103,0.021-0.151,0.032
		c-0.05,0.013-0.1,0.025-0.147,0.038c-0.049,0.012-0.093,0.021-0.135,0.031c-0.041,0.008-0.078,0.017-0.113,0.021
		c-0.033,0.006-0.063,0.01-0.091,0.014c-0.026,0.004-0.05,0.005-0.069,0.005c-0.013,0-0.027,0.001-0.046,0.003
		c-0.02,0.002-0.042,0.004-0.067,0.007s-0.053,0.005-0.083,0.009c-0.031,0.004-0.065,0.01-0.102,0.016
		c-0.036,0.007-0.074,0.013-0.113,0.021c-0.039,0.009-0.076,0.015-0.116,0.022c-0.04,0.009-0.08,0.017-0.119,0.024
		c-0.042,0.009-0.083,0.017-0.124,0.026C4.482,68.753,4.441,68.762,4.4,68.77c-0.04,0.008-0.08,0.015-0.12,0.022
		c-0.041,0.007-0.078,0.015-0.117,0.021s-0.078,0.014-0.113,0.02c-0.038,0.006-0.072,0.012-0.102,0.018
		c-0.028,0.004-0.055,0.008-0.076,0.012c-0.022,0.004-0.041,0.007-0.055,0.008c-0.014,0.002-0.025,0.003-0.031,0.003
		c-0.032,0.007-0.068,0.013-0.106,0.021c-0.039,0.008-0.076,0.017-0.119,0.025c-0.042,0.008-0.084,0.016-0.129,0.025
		c-0.045,0.011-0.092,0.021-0.14,0.033c-0.05,0.014-0.094,0.024-0.129,0.037c-0.039,0.01-0.071,0.02-0.096,0.028
		c-0.025,0.008-0.044,0.019-0.059,0.024c-0.014,0.008-0.022,0.013-0.024,0.02L0,77.502h4.185c0.068-0.045,0.135-0.092,0.196-0.133
		c0.063-0.043,0.124-0.084,0.179-0.125c0.058-0.037,0.111-0.074,0.16-0.111c0.05-0.035,0.098-0.068,0.14-0.102
		c0.044-0.033,0.09-0.067,0.133-0.1c0.045-0.033,0.09-0.068,0.133-0.104c0.045-0.035,0.09-0.067,0.137-0.104
		c0.042-0.035,0.088-0.07,0.134-0.105c0.043-0.036,0.087-0.07,0.127-0.104c0.041-0.029,0.077-0.06,0.113-0.089
		c0.036-0.028,0.07-0.053,0.099-0.077c0.031-0.021,0.06-0.041,0.086-0.062c0.009-0.007,0.02-0.017,0.032-0.03
		c0.01-0.012,0.024-0.027,0.04-0.045c0.017-0.017,0.035-0.038,0.054-0.061c0.019-0.023,0.042-0.051,0.064-0.079
		c0.021-0.028,0.043-0.056,0.063-0.082c0.02-0.025,0.038-0.048,0.055-0.07c0.017-0.021,0.03-0.039,0.044-0.056
		c0.014-0.018,0.026-0.034,0.038-0.047c0.025-0.032,0.049-0.068,0.075-0.106c0.024-0.039,0.051-0.081,0.08-0.125
		c0.029-0.044,0.058-0.094,0.086-0.146c0.031-0.051,0.062-0.107,0.096-0.164c0.032-0.059,0.058-0.112,0.083-0.157
		C6.66,75.074,6.681,75.033,6.7,75c0.019-0.037,0.033-0.066,0.044-0.091c0.009-0.025,0.017-0.043,0.022-0.056l1.962-5.98
		c0.004,0.006,0.008,0.016,0.014,0.025c0.005,0.012,0.011,0.025,0.016,0.041c0.006,0.017,0.012,0.037,0.019,0.059
		c0.007,0.021,0.013,0.046,0.021,0.074c0.007,0.025,0.013,0.052,0.017,0.076c0.005,0.023,0.008,0.045,0.01,0.065
		c0.001,0.019,0.002,0.036,0,0.052c0,0.017-0.003,0.031-0.008,0.043c0.008,0.019,0.012,0.043,0.013,0.069
		c0.003,0.029,0.004,0.063,0.004,0.104c0,0.039-0.002,0.082-0.004,0.134c-0.004,0.052-0.009,0.104-0.016,0.167
		c-0.007,0.059-0.014,0.115-0.021,0.165c-0.006,0.048-0.012,0.092-0.018,0.129c-0.005,0.036-0.011,0.065-0.015,0.091
		c-0.004,0.025-0.008,0.043-0.011,0.055c-0.002,0.026-0.006,0.055-0.012,0.092c-0.005,0.037-0.013,0.08-0.022,0.125
		c-0.009,0.047-0.021,0.103-0.033,0.16c-0.013,0.061-0.028,0.125-0.046,0.196c-0.017,0.069-0.033,0.144-0.05,0.214
		c-0.017,0.074-0.035,0.146-0.052,0.221C8.518,71.305,8.5,71.38,8.481,71.456c-0.019,0.078-0.038,0.153-0.058,0.233
		c-0.02,0.076-0.038,0.154-0.056,0.23C8.349,72,8.331,72.076,8.312,72.154c-0.019,0.074-0.037,0.152-0.055,0.227
		c-0.019,0.076-0.034,0.151-0.052,0.227c-0.019,0.076-0.036,0.145-0.052,0.207c-0.016,0.064-0.03,0.121-0.043,0.17
		c-0.013,0.051-0.023,0.095-0.034,0.132c-0.01,0.038-0.02,0.069-0.028,0.095l-0.482,1.492l-0.44,1.349
		c-0.004,0.013-0.012,0.031-0.025,0.054c-0.012,0.022-0.028,0.049-0.049,0.08c-0.018,0.03-0.042,0.065-0.07,0.105
		c-0.028,0.041-0.06,0.083-0.095,0.134c-0.035,0.05-0.068,0.093-0.098,0.13c-0.029,0.038-0.054,0.071-0.076,0.098
		c-0.023,0.029-0.042,0.052-0.058,0.067c-0.016,0.019-0.027,0.029-0.036,0.035c-0.007,0.021-0.012,0.042-0.021,0.068
		c-0.01,0.026-0.021,0.057-0.033,0.091c-0.012,0.029-0.025,0.066-0.042,0.107c-0.015,0.039-0.032,0.08-0.05,0.127
		c-0.018,0.045-0.034,0.086-0.048,0.125c-0.015,0.039-0.029,0.072-0.041,0.103c-0.012,0.028-0.022,0.056-0.03,0.076
		s-0.015,0.037-0.019,0.051h3.868l2.629-8.524H25.97L30.526,50.43z M19.286,58.305l-1.174,4.014h-3.116l1.88-6.125h3.023
		l-0.402,1.393c0.042,0.012,0.088,0.021,0.131,0.031c0.042,0.009,0.086,0.019,0.129,0.025c0.043,0.008,0.084,0.016,0.127,0.022
		c0.042,0.006,0.083,0.012,0.125,0.019c0.033,0.01,0.067,0.021,0.102,0.028c0.035,0.008,0.071,0.017,0.109,0.022
		c0.039,0.008,0.076,0.014,0.116,0.019c0.041,0.005,0.08,0.009,0.123,0.013c0.042,0.002,0.081,0.006,0.118,0.008
		c0.039,0.004,0.075,0.008,0.11,0.012c0.034,0.004,0.067,0.009,0.099,0.013c0.033,0.003,0.063,0.009,0.09,0.015
		c0.012,0,0.029,0,0.049,0.002c0.02,0,0.042,0.002,0.068,0.004c0.025,0.004,0.056,0.007,0.089,0.011
		c0.035,0.004,0.071,0.009,0.112,0.013c0.042,0.006,0.084,0.012,0.125,0.018c0.043,0.007,0.088,0.013,0.131,0.018
		c0.046,0.005,0.093,0.012,0.142,0.018c0.046,0.006,0.096,0.011,0.146,0.018c0.049,0.005,0.098,0.01,0.146,0.016
		c0.046,0.006,0.093,0.01,0.14,0.016c0.044,0.006,0.09,0.01,0.133,0.015c0.042,0.006,0.084,0.011,0.126,0.017
		c0.04,0.006,0.076,0.012,0.109,0.017c0.035,0.004,0.064,0.008,0.09,0.011c0.025,0.002,0.049,0.005,0.068,0.006
		c0.02,0.002,0.035,0.002,0.047,0.002c0.025,0,0.053,0.002,0.088,0.008c0.036,0.006,0.077,0.012,0.121,0.021
		c0.046,0.01,0.099,0.021,0.154,0.036c0.058,0.014,0.118,0.028,0.186,0.047c0.068,0.021,0.128,0.038,0.183,0.056
		c0.054,0.018,0.103,0.033,0.145,0.049s0.075,0.026,0.104,0.041c0.028,0.014,0.051,0.025,0.066,0.037H19.286L19.286,58.305z"/>
	<path fill="#FFFFFF" d="M39.408,57.359c-0.002-0.008-0.007-0.017-0.012-0.024c-0.004-0.008-0.009-0.015-0.014-0.022
		c-0.005-0.006-0.009-0.012-0.015-0.018l-0.064-0.05l-0.059-0.047c-0.01-0.011-0.023-0.022-0.037-0.033
		c-0.015-0.011-0.031-0.022-0.049-0.033C39.14,57.121,39.12,57.109,39.1,57.1c-0.021-0.012-0.044-0.022-0.07-0.033
		c-0.025-0.01-0.049-0.02-0.069-0.027c-0.022-0.008-0.042-0.016-0.061-0.021c-0.019-0.004-0.036-0.01-0.051-0.013
		S38.82,57,38.811,57c-0.023-0.006-0.052-0.011-0.086-0.018c-0.033-0.004-0.07-0.01-0.113-0.016
		c-0.042-0.005-0.091-0.01-0.142-0.016c-0.053-0.006-0.108-0.012-0.172-0.016c-0.064-0.006-0.126-0.012-0.191-0.017
		c-0.063-0.005-0.13-0.009-0.195-0.014c-0.067-0.005-0.134-0.011-0.204-0.019c-0.069-0.005-0.137-0.011-0.209-0.017
		c-0.071-0.006-0.142-0.011-0.21-0.015c-0.07-0.006-0.137-0.01-0.205-0.013c-0.066-0.004-0.132-0.008-0.196-0.011
		c-0.065-0.002-0.129-0.006-0.19-0.009c-0.063-0.003-0.12-0.005-0.174-0.007c-0.054-0.002-0.102-0.004-0.146-0.006
		s-0.083-0.002-0.115-0.004c-0.035,0-0.064,0-0.089,0l0.02-0.098l0.021-0.095c0.008-0.011,0.018-0.021,0.027-0.031
		c0.009-0.011,0.021-0.022,0.032-0.034c0.011-0.011,0.022-0.021,0.035-0.033c0.012-0.011,0.026-0.021,0.041-0.033
		c0.015-0.01,0.028-0.02,0.042-0.027c0.013-0.01,0.024-0.02,0.035-0.025c0.01-0.01,0.018-0.017,0.027-0.022
		c0.009-0.009,0.017-0.015,0.024-0.021c0.033-0.01,0.07-0.022,0.109-0.036c0.037-0.015,0.08-0.029,0.126-0.047
		c0.044-0.017,0.093-0.035,0.146-0.057c0.051-0.021,0.107-0.043,0.167-0.066c0.058-0.022,0.111-0.046,0.16-0.064
		c0.045-0.021,0.088-0.037,0.125-0.053c0.035-0.015,0.065-0.026,0.09-0.037c0.025-0.008,0.042-0.016,0.056-0.021
		c0.013,0,0.028-0.001,0.048-0.003c0.021-0.001,0.046-0.004,0.076-0.007c0.029-0.004,0.061-0.009,0.099-0.011
		c0.038-0.006,0.08-0.01,0.125-0.016c0.046-0.005,0.093-0.01,0.139-0.016c0.047-0.005,0.095-0.01,0.142-0.016
		c0.048-0.006,0.096-0.011,0.144-0.017c0.049-0.006,0.099-0.01,0.147-0.017c0.049-0.006,0.098-0.01,0.145-0.016
		c0.048-0.006,0.096-0.012,0.145-0.017c0.046-0.004,0.093-0.009,0.141-0.015c0.045-0.006,0.092-0.01,0.139-0.017
		c0.044-0.005,0.087-0.01,0.125-0.014c0.038-0.004,0.069-0.009,0.099-0.011c0.03-0.002,0.054-0.004,0.076-0.006
		c0.02,0,0.036,0,0.048,0c0.013-0.006,0.028-0.012,0.046-0.019c0.019-0.007,0.039-0.015,0.061-0.022
		c0.021-0.009,0.045-0.019,0.073-0.026c0.027-0.011,0.057-0.021,0.089-0.03c0.031-0.011,0.06-0.021,0.084-0.029
		c0.025-0.011,0.045-0.019,0.062-0.026c0.015-0.009,0.028-0.015,0.037-0.022c0.009-0.006,0.014-0.013,0.014-0.018l0.979-5.19h-8.627
		l-6.325,27.072h4.668c0.012,0,0.028-0.002,0.046-0.004c0.016-0.004,0.037-0.009,0.06-0.017c0.023-0.006,0.049-0.015,0.077-0.023
		c0.026-0.012,0.058-0.021,0.091-0.036c0.034-0.012,0.065-0.024,0.092-0.037c0.028-0.012,0.055-0.024,0.08-0.039
		c0.025-0.014,0.046-0.026,0.064-0.041c0.021-0.014,0.039-0.026,0.055-0.041l0.024-0.112l0.025-0.119l-0.219-0.275
		c-0.004-0.014-0.009-0.031-0.012-0.057c-0.003-0.023-0.006-0.055-0.008-0.09c-0.003-0.035-0.005-0.078-0.006-0.125
		c-0.002-0.047-0.002-0.103-0.002-0.16c-0.001-0.059-0.002-0.113-0.004-0.162c-0.001-0.051-0.002-0.098-0.003-0.139
		c-0.001-0.043-0.002-0.082-0.003-0.116c0-0.032-0.002-0.062-0.003-0.089c0.003-0.012,0.007-0.026,0.012-0.043
		c0.005-0.015,0.011-0.028,0.018-0.047c0.008-0.02,0.016-0.037,0.025-0.059c0.01-0.02,0.02-0.041,0.032-0.062
		c0.011-0.022,0.021-0.043,0.03-0.063c0.009-0.021,0.018-0.041,0.024-0.06c0.006-0.018,0.012-0.034,0.017-0.049
		c0.006-0.016,0.009-0.031,0.012-0.043l0.173-0.076c0.006,0,0.013,0.002,0.021,0.006c0.008,0.005,0.016,0.011,0.025,0.019
		c0.008,0.009,0.018,0.019,0.026,0.031c0.009,0.012,0.019,0.026,0.028,0.042c0.008,0.016,0.018,0.031,0.028,0.045
		c0.01,0.016,0.02,0.029,0.031,0.045c0.01,0.016,0.021,0.029,0.031,0.042c0.01,0.013,0.021,0.026,0.032,0.039
		c0.004,0.009,0.011,0.019,0.021,0.031c0.007,0.014,0.019,0.03,0.032,0.053c0.014,0.022,0.03,0.046,0.049,0.076
		c0.019,0.026,0.04,0.059,0.062,0.095c0.02,0.036,0.042,0.07,0.065,0.107s0.046,0.076,0.07,0.109
		c0.022,0.039,0.047,0.077,0.071,0.116c0.025,0.036,0.05,0.075,0.075,0.115c0.026,0.039,0.049,0.075,0.074,0.116
		c0.025,0.039,0.048,0.078,0.072,0.115c0.024,0.041,0.045,0.08,0.068,0.118c0.023,0.038,0.046,0.077,0.069,0.116
		c0.021,0.038,0.041,0.075,0.058,0.105c0.018,0.031,0.033,0.06,0.046,0.08c0.013,0.023,0.025,0.043,0.034,0.059
		c0.008,0.015,0.017,0.025,0.021,0.031c0.012,0.007,0.024,0.014,0.034,0.021c0.012,0.008,0.023,0.018,0.035,0.027
		c0.012,0.009,0.023,0.02,0.034,0.029c0.011,0.013,0.021,0.024,0.033,0.041c0.01,0.012,0.021,0.022,0.03,0.035
		c0.009,0.01,0.016,0.021,0.024,0.03c0.008,0.011,0.015,0.019,0.021,0.024c0.007,0.009,0.013,0.015,0.018,0.021
		c0.011,0.014,0.024,0.027,0.04,0.041c0.015,0.014,0.032,0.027,0.052,0.041c0.017,0.014,0.039,0.026,0.062,0.039
		c0.023,0.012,0.049,0.025,0.076,0.037c0.025,0.014,0.05,0.025,0.073,0.036c0.022,0.01,0.042,0.019,0.059,0.024
		s0.031,0.012,0.042,0.016c0.012,0.002,0.023,0.004,0.03,0.004h2.708l3.793-20.113C39.417,57.378,39.413,57.369,39.408,57.359z"/>
	<path fill="#FFFFFF" d="M145.618,59.623h-4.978c-0.013,0-0.026,0.005-0.043,0.016c-0.018,0.01-0.035,0.024-0.058,0.045
		s-0.043,0.045-0.069,0.073c-0.025,0.029-0.053,0.063-0.082,0.104c-0.031,0.037-0.056,0.074-0.08,0.111
		c-0.023,0.037-0.043,0.069-0.061,0.104c-0.018,0.033-0.031,0.064-0.042,0.096c-0.008,0.029-0.015,0.059-0.019,0.086
		c-0.009,0.012-0.017,0.026-0.022,0.045c-0.008,0.02-0.015,0.04-0.019,0.065c-0.006,0.024-0.012,0.055-0.016,0.087
		c-0.003,0.029-0.006,0.066-0.008,0.105c-0.003,0.041-0.006,0.08-0.009,0.121s-0.007,0.082-0.011,0.123
		c-0.002,0.041-0.006,0.084-0.009,0.127c-0.004,0.043-0.007,0.088-0.011,0.133c-0.004,0.043-0.007,0.09-0.01,0.133
		c-0.004,0.042-0.008,0.086-0.01,0.129c-0.004,0.041-0.006,0.082-0.008,0.124c-0.003,0.042-0.005,0.081-0.007,0.12
		c-0.002,0.041-0.004,0.078-0.006,0.111s-0.005,0.065-0.007,0.094c-0.001,0.027-0.003,0.052-0.004,0.074
		c0,0.023-0.001,0.043-0.001,0.061c-0.005-0.018-0.013-0.037-0.023-0.061c-0.009-0.021-0.022-0.045-0.036-0.074
		c-0.015-0.028-0.029-0.062-0.049-0.094c-0.018-0.033-0.037-0.072-0.059-0.111c-0.022-0.04-0.045-0.078-0.068-0.119
		s-0.046-0.082-0.07-0.121c-0.023-0.042-0.048-0.083-0.074-0.123c-0.024-0.042-0.049-0.085-0.074-0.128
		c-0.026-0.041-0.053-0.083-0.078-0.125c-0.025-0.04-0.05-0.081-0.076-0.123c-0.025-0.042-0.052-0.08-0.078-0.12
		c-0.025-0.041-0.048-0.08-0.072-0.117c-0.025-0.041-0.049-0.078-0.07-0.111c-0.021-0.031-0.042-0.063-0.059-0.092
		c-0.019-0.029-0.035-0.055-0.051-0.076c-0.015-0.022-0.027-0.041-0.04-0.06c-0.001-0.005-0.006-0.011-0.013-0.021
		c-0.006-0.006-0.016-0.016-0.025-0.024c-0.009-0.011-0.022-0.022-0.039-0.034c-0.016-0.01-0.033-0.023-0.053-0.037
		c-0.021-0.016-0.039-0.027-0.056-0.037c-0.015-0.011-0.03-0.02-0.043-0.024c-0.013-0.007-0.025-0.013-0.035-0.015
		c-0.009-0.004-0.019-0.006-0.022-0.006c-0.011-0.011-0.021-0.025-0.035-0.039c-0.014-0.019-0.028-0.037-0.045-0.061
		c-0.019-0.021-0.039-0.047-0.062-0.076c-0.022-0.025-0.046-0.057-0.072-0.091c-0.024-0.034-0.049-0.063-0.069-0.091
		c-0.021-0.028-0.039-0.055-0.053-0.076s-0.025-0.042-0.035-0.059c-0.009-0.017-0.016-0.03-0.019-0.041h-6.11l-0.763-2.619h13.144
		l-2.312-6.478h-21.549l1.313,5.384c0.002,0.006,0.004,0.013,0.01,0.023c0.006,0.01,0.013,0.021,0.021,0.037
		c0.01,0.014,0.021,0.031,0.035,0.051s0.029,0.042,0.047,0.064c0.02,0.024,0.035,0.045,0.053,0.065
		c0.018,0.021,0.034,0.04,0.051,0.058s0.033,0.033,0.047,0.048c0.016,0.012,0.029,0.024,0.044,0.034
		c0.007,0.007,0.016,0.015,0.024,0.021c0.01,0.008,0.021,0.018,0.031,0.026c0.012,0.009,0.024,0.02,0.038,0.03
		c0.013,0.013,0.026,0.025,0.041,0.041c0.017,0.01,0.03,0.021,0.043,0.031c0.015,0.01,0.026,0.018,0.037,0.024
		c0.011,0.006,0.021,0.011,0.028,0.014c0.009,0.003,0.015,0.005,0.021,0.005c0.015,0.012,0.03,0.023,0.05,0.034
		c0.019,0.011,0.039,0.022,0.062,0.034c0.022,0.011,0.047,0.02,0.071,0.029c0.027,0.011,0.056,0.021,0.086,0.033
		c0.029,0.012,0.055,0.021,0.08,0.031s0.049,0.02,0.071,0.027c0.021,0.008,0.04,0.015,0.058,0.021
		c0.019,0.006,0.033,0.014,0.048,0.019c0.036,0,0.079,0,0.128-0.001c0.049,0,0.104-0.002,0.167-0.004
		c0.063,0,0.132-0.004,0.209-0.006c0.075-0.002,0.159-0.004,0.248-0.008c0.089-0.002,0.181-0.005,0.272-0.006
		c0.092-0.002,0.186-0.003,0.279-0.005c0.096-0.001,0.189-0.001,0.286-0.002c0.099,0,0.196-0.001,0.295-0.001
		c0.101,0,0.196,0.001,0.293,0.001c0.099,0.001,0.192,0.001,0.287,0.002c0.096,0.002,0.188,0.002,0.282,0.005
		c0.094,0.001,0.185,0.004,0.275,0.006c0.092,0.004,0.174,0.006,0.252,0.008c0.076,0.002,0.147,0.006,0.213,0.006
		c0.062,0,0.119,0.002,0.168,0.004c0.051,0.001,0.094,0.001,0.131,0.001c0.021,0,0.048,0,0.076,0
		c0.028,0.001,0.059,0.003,0.09,0.006c0.031,0.002,0.066,0.006,0.104,0.009c0.035,0.004,0.074,0.01,0.115,0.014
		c0.042,0.006,0.08,0.01,0.119,0.017c0.041,0.005,0.082,0.011,0.119,0.016c0.041,0.005,0.08,0.011,0.117,0.017
		c0.039,0.004,0.076,0.011,0.113,0.016c0.038,0.006,0.076,0.013,0.118,0.021c0.042,0.006,0.083,0.015,0.128,0.022
		s0.09,0.015,0.139,0.024s0.1,0.021,0.148,0.029l0.053,0.193c-0.023,0.006-0.052,0.013-0.085,0.02
		c-0.032,0.008-0.073,0.016-0.121,0.023c-0.045,0.008-0.097,0.016-0.155,0.023c-0.058,0.011-0.123,0.021-0.19,0.03
		c-0.069,0.011-0.134,0.021-0.188,0.031c-0.057,0.009-0.105,0.019-0.148,0.026c-0.043,0.009-0.081,0.017-0.109,0.022
		c-0.027,0.007-0.052,0.013-0.068,0.019c-0.006,0.006-0.014,0.012-0.024,0.018c-0.011,0.008-0.022,0.016-0.039,0.025
		c-0.013,0.01-0.032,0.021-0.053,0.031c-0.021,0.012-0.046,0.024-0.072,0.039c-0.026,0.014-0.05,0.024-0.074,0.036
		c-0.022,0.009-0.044,0.017-0.063,0.024c-0.021,0.006-0.038,0.011-0.051,0.014c-0.017,0.003-0.029,0.005-0.043,0.005
		c-0.011,0.007-0.026,0.013-0.047,0.019s-0.045,0.012-0.072,0.018c-0.029,0.005-0.062,0.01-0.102,0.016
		c-0.036,0.006-0.079,0.012-0.125,0.018c-0.046,0.005-0.094,0.01-0.143,0.016c-0.051,0.006-0.1,0.01-0.151,0.016
		c-0.052,0.007-0.104,0.011-0.157,0.017c-0.053,0.004-0.107,0.009-0.164,0.015c-0.055,0.006-0.11,0.01-0.166,0.016
		c-0.053,0.006-0.106,0.01-0.158,0.014c-0.051,0.004-0.104,0.008-0.152,0.012c-0.049,0.002-0.1,0.006-0.145,0.008
		c-0.049,0.004-0.093,0.007-0.131,0.009c-0.037,0.002-0.072,0.004-0.103,0.006c-0.03,0.001-0.058,0.002-0.075,0.002
		c-0.021,0.001-0.039,0.001-0.051,0.001c-0.03,0.006-0.064,0.012-0.105,0.02c-0.043,0.006-0.092,0.014-0.146,0.021
		c-0.057,0.009-0.119,0.018-0.188,0.027c-0.07,0.008-0.144,0.02-0.227,0.031c-0.081,0.01-0.156,0.021-0.223,0.032
		c-0.066,0.011-0.125,0.022-0.176,0.033c-0.054,0.011-0.096,0.022-0.133,0.033c-0.036,0.011-0.064,0.021-0.085,0.03
		c-0.03,0.006-0.063,0.012-0.098,0.019c-0.036,0.007-0.072,0.015-0.113,0.022s-0.083,0.018-0.128,0.026
		c-0.047,0.011-0.096,0.021-0.146,0.033c-0.052,0.01-0.1,0.021-0.141,0.03c-0.041,0.008-0.078,0.016-0.107,0.024
		c-0.031,0.009-0.059,0.017-0.08,0.023c-0.021,0.007-0.037,0.013-0.047,0.018c-0.013,0-0.024,0.003-0.035,0.007
		c-0.01,0.002-0.021,0.008-0.032,0.016c-0.011,0.007-0.021,0.015-0.031,0.025c-0.009,0.01-0.021,0.021-0.028,0.035
		c-0.01,0.014-0.017,0.025-0.022,0.037c-0.007,0.012-0.013,0.023-0.015,0.033c-0.004,0.01-0.006,0.018-0.006,0.025s0,0.014,0,0.02
		l2.088,8.538h13.797l0.899,2.892H125.48l1.924,7.864h4.185l0.517-0.747l-0.762-2.857c-0.001-0.024-0.002-0.056-0.005-0.09
		c-0.003-0.035-0.006-0.078-0.009-0.125c-0.005-0.043-0.01-0.097-0.016-0.154c-0.006-0.055-0.013-0.118-0.021-0.185
		c-0.007-0.067-0.015-0.133-0.022-0.204c-0.008-0.065-0.016-0.137-0.022-0.207c-0.008-0.07-0.017-0.145-0.024-0.216
		c-0.008-0.073-0.016-0.147-0.023-0.225c-0.006-0.074-0.014-0.149-0.02-0.22c-0.008-0.074-0.014-0.145-0.02-0.215
		s-0.012-0.141-0.018-0.207c-0.004-0.07-0.008-0.134-0.013-0.201c-0.005-0.062-0.009-0.125-0.013-0.181
		c-0.003-0.054-0.006-0.104-0.008-0.149s-0.004-0.086-0.006-0.12c-0.002-0.035-0.002-0.063-0.002-0.089
		c0.01,0.031,0.02,0.066,0.031,0.108c0.01,0.043,0.024,0.091,0.041,0.146c0.018,0.055,0.035,0.113,0.057,0.181
		c0.02,0.065,0.041,0.138,0.064,0.214c0.025,0.079,0.049,0.157,0.076,0.238c0.025,0.079,0.052,0.16,0.077,0.24
		c0.026,0.084,0.055,0.166,0.083,0.248c0.027,0.082,0.056,0.166,0.084,0.252c0.029,0.084,0.061,0.17,0.09,0.252
		c0.027,0.084,0.059,0.166,0.087,0.248c0.029,0.082,0.058,0.164,0.087,0.244c0.026,0.082,0.055,0.162,0.083,0.24
		c0.028,0.082,0.056,0.154,0.078,0.223c0.024,0.065,0.048,0.129,0.071,0.184c0.021,0.057,0.041,0.107,0.061,0.148
		c0.016,0.045,0.033,0.084,0.047,0.117c0.002,0.006,0.008,0.015,0.016,0.025c0.008,0.012,0.019,0.025,0.031,0.044
		c0.014,0.019,0.029,0.038,0.047,0.062c0.019,0.024,0.039,0.05,0.062,0.078c0.025,0.028,0.05,0.06,0.076,0.09
		c0.025,0.029,0.052,0.062,0.079,0.097c0.026,0.034,0.056,0.067,0.086,0.104c0.026,0.036,0.058,0.074,0.087,0.113
		c0.031,0.038,0.062,0.076,0.089,0.115c0.029,0.038,0.06,0.076,0.087,0.115c0.028,0.039,0.055,0.076,0.083,0.115
		c0.029,0.039,0.056,0.078,0.083,0.115c0.026,0.039,0.051,0.076,0.077,0.11c0.024,0.032,0.05,0.063,0.073,0.094
		c0.021,0.029,0.043,0.056,0.063,0.079c0.021,0.023,0.04,0.046,0.06,0.064c0.018,0.014,0.039,0.033,0.066,0.059
		c0.029,0.023,0.062,0.054,0.104,0.09c0.038,0.036,0.084,0.078,0.136,0.125c0.05,0.048,0.107,0.1,0.169,0.158
		s0.121,0.111,0.174,0.163c0.054,0.051,0.104,0.096,0.148,0.138c0.045,0.042,0.086,0.081,0.122,0.114
		c0.035,0.034,0.066,0.063,0.094,0.091c0.009,0.014,0.021,0.025,0.034,0.038c0.013,0.014,0.026,0.026,0.042,0.041
		c0.015,0.013,0.031,0.024,0.05,0.039c0.019,0.014,0.038,0.026,0.058,0.041c0.021,0.014,0.039,0.024,0.051,0.034
		c0.016,0.013,0.029,0.023,0.041,0.033c0.011,0.01,0.021,0.021,0.026,0.027c0.007,0.008,0.011,0.016,0.013,0.021
		c0.031,0.013,0.063,0.027,0.101,0.047c0.037,0.016,0.077,0.035,0.118,0.06c0.043,0.022,0.09,0.048,0.139,0.077
		c0.049,0.025,0.102,0.057,0.156,0.089c0.057,0.033,0.107,0.062,0.148,0.087c0.045,0.024,0.082,0.045,0.113,0.062
		c0.03,0.016,0.057,0.027,0.075,0.037c0.019,0.008,0.032,0.012,0.038,0.012h9.568c-0.008-0.025-0.016-0.059-0.025-0.094
		c-0.01-0.033-0.02-0.072-0.032-0.118c-0.011-0.044-0.022-0.093-0.036-0.146c-0.012-0.056-0.025-0.111-0.039-0.177
		c-0.015-0.062-0.027-0.123-0.041-0.187c-0.016-0.065-0.031-0.133-0.045-0.196c-0.015-0.068-0.031-0.136-0.046-0.205
		c-0.015-0.067-0.032-0.14-0.046-0.209c-0.018-0.073-0.035-0.142-0.05-0.212c-0.017-0.067-0.033-0.137-0.048-0.203
		c-0.014-0.064-0.029-0.131-0.041-0.193c-0.016-0.063-0.029-0.125-0.043-0.188c-0.014-0.061-0.025-0.117-0.035-0.17
		c-0.012-0.053-0.02-0.1-0.027-0.145c-0.008-0.044-0.014-0.082-0.018-0.117c-0.006-0.035-0.008-0.064-0.01-0.09
		c-0.008-0.019-0.014-0.043-0.018-0.074c-0.006-0.03-0.012-0.064-0.018-0.106s-0.012-0.09-0.017-0.142
		c-0.005-0.055-0.009-0.112-0.015-0.176c-0.004-0.064-0.008-0.121-0.01-0.172c-0.004-0.052-0.006-0.095-0.008-0.134
		c0-0.039,0-0.069,0-0.094c0-0.025,0.004-0.045,0.008-0.058c-0.004-0.006-0.004-0.015-0.002-0.022
		c0.002-0.009,0.005-0.017,0.009-0.026c0.006-0.009,0.012-0.02,0.021-0.029c0.01-0.012,0.021-0.023,0.032-0.037
		c0.013-0.012,0.022-0.024,0.033-0.035c0.01-0.012,0.019-0.021,0.026-0.032c0.009-0.009,0.016-0.019,0.021-0.026
		c0.007-0.008,0.013-0.016,0.017-0.02c0.006,0.018,0.014,0.038,0.023,0.062c0.009,0.024,0.021,0.051,0.033,0.08
		c0.013,0.026,0.027,0.059,0.044,0.092c0.017,0.035,0.034,0.068,0.055,0.108c0.021,0.039,0.038,0.078,0.056,0.117
		c0.021,0.041,0.041,0.081,0.061,0.123c0.021,0.04,0.042,0.083,0.062,0.126c0.02,0.042,0.039,0.086,0.061,0.131
		s0.043,0.087,0.062,0.131c0.022,0.043,0.041,0.084,0.062,0.127s0.041,0.084,0.062,0.123c0.02,0.04,0.039,0.08,0.06,0.12
		c0.017,0.038,0.034,0.074,0.051,0.104c0.017,0.033,0.029,0.061,0.042,0.086c0.014,0.025,0.023,0.049,0.031,0.068
		s0.015,0.035,0.02,0.047c0.021,0.051,0.047,0.108,0.077,0.168c0.029,0.063,0.062,0.127,0.095,0.199
		c0.035,0.071,0.074,0.148,0.115,0.229c0.04,0.082,0.083,0.167,0.13,0.258c0.046,0.091,0.087,0.17,0.122,0.241
		c0.036,0.071,0.064,0.129,0.088,0.178c0.025,0.048,0.045,0.086,0.059,0.114c0.014,0.027,0.021,0.044,0.022,0.051
		c0.013,0.013,0.025,0.027,0.039,0.044c0.013,0.019,0.029,0.037,0.048,0.06c0.017,0.021,0.034,0.043,0.055,0.069
		c0.021,0.022,0.043,0.052,0.063,0.081c0.023,0.03,0.045,0.059,0.066,0.082c0.02,0.025,0.038,0.05,0.056,0.071
		c0.018,0.021,0.031,0.04,0.045,0.058c0.014,0.016,0.026,0.03,0.037,0.042c0.018,0.017,0.037,0.028,0.055,0.043
		c0.019,0.013,0.033,0.025,0.051,0.04c0.019,0.014,0.037,0.026,0.055,0.04c0.02,0.013,0.037,0.022,0.055,0.037
		s0.033,0.024,0.047,0.035c0.016,0.01,0.029,0.018,0.041,0.024c0.012,0.006,0.023,0.012,0.033,0.015
		c0.01,0.004,0.018,0.006,0.023,0.006H152L145.618,59.623z"/>
	<path fill="#FFFFFF" d="M96.572,59.195c-0.062-0.01-0.124-0.019-0.182-0.027c-0.06-0.008-0.115-0.016-0.17-0.023
		c-0.055-0.006-0.105-0.011-0.154-0.016c-0.051-0.005-0.1-0.01-0.148-0.016c-0.05-0.006-0.1-0.012-0.146-0.018
		c-0.051-0.006-0.101-0.011-0.148-0.016c-0.049-0.006-0.1-0.012-0.146-0.02c-0.051-0.004-0.099-0.01-0.144-0.014
		c-0.047-0.004-0.092-0.008-0.134-0.01c-0.045-0.003-0.085-0.004-0.125-0.006c-0.041-0.002-0.079-0.002-0.116-0.002
		c-0.035-0.006-0.079-0.012-0.128-0.018c-0.051-0.005-0.104-0.012-0.166-0.018c-0.061-0.005-0.128-0.01-0.201-0.016
		c-0.074-0.006-0.152-0.011-0.238-0.017c-0.086-0.005-0.175-0.01-0.262-0.017c-0.086-0.006-0.177-0.01-0.268-0.016
		c-0.09-0.007-0.182-0.012-0.272-0.018c-0.093-0.007-0.187-0.012-0.28-0.02c-0.096-0.004-0.188-0.011-0.283-0.016
		c-0.092-0.006-0.183-0.011-0.272-0.018c-0.09-0.006-0.18-0.01-0.267-0.018c-0.086-0.006-0.174-0.01-0.258-0.016
		c-0.088-0.006-0.168-0.01-0.242-0.014c-0.072-0.004-0.141-0.008-0.2-0.011c-0.062-0.002-0.115-0.005-0.164-0.005
		c-0.049-0.001-0.092-0.002-0.126-0.002L90.868,58.5h5.827l-0.865-8.073h-8.487l0.183,2.949h-3.51l0.127,2.815h-1.332l-0.104-2.815
		h-3.513l-0.055-2.949h-8.732l-0.126,4.872h3.078c-0.006,0.01-0.014,0.021-0.025,0.033s-0.025,0.025-0.042,0.039
		c-0.017,0.013-0.036,0.027-0.057,0.042c-0.022,0.013-0.047,0.028-0.075,0.044c-0.027,0.016-0.051,0.033-0.075,0.047
		c-0.023,0.016-0.045,0.029-0.065,0.043c-0.019,0.014-0.037,0.025-0.053,0.036c-0.014,0.013-0.028,0.022-0.04,0.034
		c-0.013,0.005-0.03,0.012-0.053,0.021c-0.024,0.008-0.051,0.019-0.083,0.03c-0.033,0.013-0.073,0.026-0.117,0.042
		c-0.042,0.014-0.091,0.03-0.145,0.049c-0.053,0.02-0.108,0.038-0.165,0.057c-0.056,0.021-0.115,0.041-0.172,0.06
		c-0.059,0.021-0.121,0.042-0.18,0.062c-0.062,0.022-0.122,0.043-0.186,0.065c-0.062,0.021-0.126,0.041-0.188,0.062
		c-0.061,0.021-0.122,0.041-0.179,0.062c-0.06,0.021-0.118,0.039-0.174,0.058c-0.058,0.02-0.111,0.039-0.166,0.058
		c-0.056,0.02-0.104,0.038-0.15,0.053c-0.046,0.017-0.087,0.027-0.122,0.04c-0.037,0.012-0.068,0.021-0.096,0.031
		c-0.024,0.008-0.048,0.016-0.066,0.021c-0.012,0.013-0.027,0.023-0.045,0.034c-0.017,0.012-0.037,0.021-0.058,0.033
		c-0.021,0.011-0.044,0.02-0.071,0.029c-0.026,0.011-0.055,0.022-0.083,0.033c-0.031,0.012-0.057,0.021-0.08,0.032
		c-0.022,0.009-0.042,0.019-0.058,0.026c-0.013,0.009-0.024,0.016-0.032,0.021c-0.008,0.006-0.012,0.014-0.012,0.019l-0.548,20.887
		h9.846l-0.045-2.416c-0.018,0-0.042-0.001-0.068-0.002c-0.027-0.001-0.057-0.004-0.088-0.007c-0.033-0.003-0.07-0.008-0.109-0.012
		c-0.041-0.006-0.082-0.013-0.129-0.021c-0.045-0.006-0.092-0.012-0.139-0.019c-0.048-0.006-0.094-0.012-0.142-0.018
		s-0.095-0.012-0.144-0.019c-0.05-0.007-0.098-0.013-0.148-0.021c-0.049-0.006-0.098-0.012-0.146-0.02
		c-0.048-0.006-0.096-0.014-0.143-0.02c-0.049-0.008-0.096-0.015-0.143-0.021c-0.048-0.008-0.094-0.014-0.141-0.021
		c-0.047-0.006-0.09-0.011-0.128-0.016c-0.04-0.005-0.076-0.01-0.108-0.014c-0.031-0.002-0.062-0.004-0.09-0.004
		c-0.025-0.002-0.05-0.004-0.068-0.004c-0.065-0.013-0.137-0.024-0.211-0.039c-0.078-0.012-0.16-0.024-0.244-0.037
		c-0.09-0.014-0.182-0.025-0.279-0.039c-0.098-0.012-0.2-0.023-0.311-0.036c-0.107-0.013-0.202-0.025-0.286-0.036
		c-0.082-0.01-0.153-0.018-0.209-0.025c-0.058-0.006-0.102-0.011-0.134-0.014c-0.032-0.004-0.052-0.005-0.059-0.005
		c-0.012-0.007-0.027-0.015-0.043-0.028c-0.014-0.011-0.033-0.025-0.053-0.042c-0.02-0.018-0.042-0.038-0.065-0.062
		s-0.046-0.049-0.073-0.076c-0.026-0.029-0.051-0.057-0.075-0.08c-0.023-0.025-0.043-0.048-0.063-0.068
		c-0.02-0.02-0.038-0.039-0.055-0.055c-0.016-0.018-0.031-0.032-0.043-0.044c-0.014-0.021-0.028-0.043-0.045-0.073
		c-0.018-0.029-0.037-0.064-0.058-0.105c-0.021-0.038-0.044-0.084-0.069-0.135c-0.024-0.049-0.051-0.104-0.081-0.166
		c-0.029-0.059-0.057-0.115-0.079-0.162c-0.025-0.051-0.045-0.096-0.064-0.137c-0.018-0.037-0.033-0.072-0.046-0.104
		c-0.012-0.029-0.021-0.055-0.027-0.073c-0.005-0.012-0.009-0.026-0.013-0.041s-0.005-0.03-0.005-0.049
		c0-0.017,0.002-0.036,0.005-0.054c0.003-0.021,0.008-0.043,0.012-0.064c0.007-0.021,0.013-0.044,0.019-0.062
		c0.005-0.019,0.009-0.037,0.012-0.056c0.003-0.018,0.006-0.032,0.008-0.048s0.002-0.027,0.002-0.041
		c0.013,0,0.026-0.002,0.039-0.003c0.013-0.001,0.026-0.004,0.041-0.008c0.015-0.002,0.029-0.005,0.048-0.011
		c0.02-0.006,0.042-0.011,0.068-0.017c0.006,0.006,0.016,0.015,0.028,0.025c0.012,0.009,0.027,0.021,0.044,0.034
		c0.018,0.016,0.039,0.031,0.062,0.051c0.024,0.019,0.05,0.039,0.078,0.062c0.03,0.021,0.062,0.044,0.093,0.067
		c0.032,0.021,0.062,0.046,0.095,0.07c0.032,0.021,0.066,0.045,0.1,0.068c0.033,0.024,0.068,0.049,0.104,0.075
		c0.037,0.024,0.07,0.051,0.105,0.075c0.036,0.025,0.069,0.049,0.1,0.074c0.034,0.021,0.066,0.045,0.098,0.068
		c0.032,0.023,0.061,0.047,0.091,0.069c0.029,0.022,0.057,0.041,0.081,0.06c0.022,0.019,0.042,0.035,0.061,0.049
		c0.018,0.015,0.033,0.026,0.046,0.039c0.011,0.01,0.021,0.019,0.028,0.024c0.026,0.01,0.056,0.026,0.09,0.043
		c0.034,0.017,0.074,0.038,0.115,0.06c0.042,0.022,0.091,0.047,0.14,0.073c0.053,0.026,0.107,0.056,0.166,0.089
		c0.059,0.031,0.112,0.059,0.16,0.084c0.047,0.026,0.09,0.049,0.125,0.069c0.036,0.021,0.067,0.034,0.094,0.047
		c0.024,0.015,0.041,0.023,0.056,0.029h0.586h0.631c0.033-0.006,0.069-0.015,0.108-0.021c0.041-0.009,0.085-0.019,0.132-0.025
		c0.047-0.008,0.099-0.021,0.153-0.031c0.054-0.011,0.113-0.023,0.175-0.036c0.062-0.013,0.116-0.026,0.163-0.041
		c0.049-0.012,0.09-0.024,0.123-0.039c0.033-0.01,0.062-0.024,0.082-0.036c0.021-0.014,0.035-0.025,0.043-0.039l-0.006-0.189
		c0-0.014,0-0.027,0-0.038c0-0.013,0-0.026,0.004-0.039c0-0.013,0.002-0.024,0.004-0.039c0.003-0.012,0.005-0.024,0.008-0.038
		c0.002-0.012,0.005-0.025,0.008-0.035c0.002-0.014,0.004-0.027,0.006-0.041c0.002-0.012,0.003-0.024,0.003-0.037
		c0-0.015,0-0.027,0-0.041c0-0.02,0-0.039-0.001-0.063c-0.002-0.024-0.004-0.052-0.006-0.082c-0.002-0.028-0.005-0.062-0.008-0.097
		c-0.002-0.036-0.004-0.075-0.008-0.113c-0.006-0.042-0.01-0.08-0.012-0.111c-0.004-0.031-0.006-0.06-0.009-0.085
		c-0.002-0.024-0.004-0.043-0.004-0.06c-0.001-0.014-0.002-0.024-0.002-0.03c0-0.013-0.002-0.024-0.006-0.039
		c-0.003-0.012-0.009-0.024-0.017-0.037s-0.016-0.024-0.024-0.038c-0.01-0.01-0.021-0.022-0.034-0.035
		c-0.014-0.014-0.027-0.024-0.04-0.037c-0.014-0.01-0.026-0.021-0.04-0.03c-0.014-0.011-0.027-0.019-0.041-0.026
		c-0.013-0.008-0.027-0.016-0.041-0.023c-0.013,0-0.027,0-0.048-0.002c-0.021,0-0.045-0.002-0.073-0.004
		c-0.027-0.004-0.058-0.008-0.093-0.012c-0.034-0.005-0.073-0.01-0.114-0.016c-0.043-0.008-0.086-0.014-0.129-0.02
		c-0.043-0.007-0.087-0.014-0.131-0.02c-0.043-0.007-0.088-0.012-0.134-0.02c-0.043-0.006-0.089-0.013-0.136-0.019
		c-0.045-0.007-0.088-0.013-0.133-0.019s-0.088-0.014-0.133-0.021c-0.045-0.005-0.088-0.01-0.131-0.017
		c-0.042-0.008-0.085-0.014-0.126-0.021c-0.042-0.006-0.08-0.012-0.114-0.017c-0.033-0.006-0.062-0.008-0.086-0.012
		s-0.046-0.006-0.062-0.008c-0.013-0.003-0.024-0.004-0.031-0.004c-0.026-0.006-0.055-0.012-0.085-0.019
		c-0.031-0.007-0.062-0.013-0.097-0.019c-0.034-0.008-0.071-0.014-0.107-0.02c-0.039-0.008-0.079-0.014-0.122-0.02
		c-0.041-0.004-0.084-0.01-0.125-0.016c-0.041-0.007-0.083-0.013-0.123-0.02c-0.041-0.006-0.08-0.013-0.121-0.02
		c-0.041-0.006-0.08-0.012-0.117-0.02c-0.041-0.006-0.082-0.012-0.125-0.019c-0.043-0.006-0.09-0.013-0.14-0.019
		c-0.047-0.008-0.099-0.014-0.152-0.021c-0.053-0.006-0.109-0.012-0.167-0.019l-0.466-0.448c0-0.013-0.003-0.026-0.007-0.043
		c-0.004-0.017-0.01-0.035-0.019-0.056c-0.008-0.021-0.018-0.043-0.03-0.065c-0.012-0.024-0.026-0.051-0.043-0.079
		c-0.015-0.029-0.03-0.052-0.043-0.076c-0.015-0.023-0.026-0.045-0.038-0.065c-0.011-0.021-0.021-0.038-0.03-0.056
		c-0.008-0.015-0.017-0.028-0.023-0.041c-0.006-0.013-0.014-0.028-0.023-0.049c-0.008-0.021-0.018-0.046-0.029-0.072
		c-0.011-0.029-0.025-0.061-0.04-0.098c-0.013-0.035-0.029-0.072-0.045-0.117c-0.017-0.043-0.031-0.08-0.042-0.117
		c-0.012-0.035-0.022-0.068-0.029-0.096c-0.008-0.027-0.013-0.052-0.018-0.072c-0.004-0.021-0.005-0.039-0.005-0.051
		c-0.014-0.029-0.027-0.062-0.041-0.101c-0.013-0.037-0.026-0.079-0.04-0.123c-0.013-0.045-0.024-0.093-0.037-0.144
		c-0.012-0.053-0.025-0.108-0.038-0.166c-0.013-0.06-0.024-0.108-0.034-0.154c-0.009-0.045-0.018-0.084-0.024-0.114
		c-0.007-0.032-0.011-0.059-0.014-0.078c-0.003-0.019-0.005-0.032-0.005-0.038c0-0.011,0.002-0.023,0.005-0.039
		c0.003-0.018,0.008-0.035,0.014-0.056s0.015-0.043,0.024-0.065c0.01-0.023,0.021-0.049,0.034-0.078
		c0.014-0.026,0.027-0.051,0.041-0.071c0.014-0.022,0.025-0.042,0.038-0.06c0.013-0.017,0.026-0.03,0.039-0.041
		c0.012-0.013,0.025-0.021,0.039-0.027c0.006,0.02,0.014,0.04,0.025,0.064c0.01,0.025,0.023,0.053,0.035,0.082
		c0.016,0.03,0.032,0.064,0.05,0.102c0.019,0.035,0.04,0.074,0.062,0.117c0.022,0.045,0.042,0.086,0.064,0.131
		c0.022,0.043,0.045,0.086,0.068,0.131c0.022,0.045,0.045,0.09,0.066,0.133c0.023,0.045,0.045,0.092,0.068,0.135
		c0.022,0.047,0.045,0.094,0.066,0.139c0.023,0.046,0.046,0.092,0.069,0.137c0.023,0.043,0.045,0.087,0.069,0.132
		c0.021,0.042,0.044,0.085,0.067,0.128c0.022,0.042,0.044,0.083,0.065,0.121c0.019,0.039,0.038,0.07,0.056,0.102
		c0.018,0.031,0.035,0.06,0.05,0.084c0.016,0.024,0.03,0.043,0.042,0.062c0.013,0.014,0.026,0.027,0.043,0.045
		c0.018,0.018,0.037,0.037,0.059,0.059c0.021,0.021,0.045,0.045,0.069,0.071c0.024,0.025,0.053,0.056,0.082,0.087
		c0.029,0.029,0.057,0.059,0.08,0.084c0.025,0.024,0.048,0.047,0.07,0.065c0.021,0.017,0.041,0.032,0.059,0.045
		c0.015,0.013,0.03,0.022,0.045,0.028c0.012,0,0.035,0,0.067,0.004c0.033,0.004,0.073,0.009,0.125,0.015
		c0.054,0.006,0.113,0.015,0.185,0.024c0.072,0.009,0.152,0.021,0.242,0.033c0.092,0.011,0.178,0.022,0.256,0.035
		c0.082,0.012,0.153,0.025,0.224,0.037c0.067,0.012,0.13,0.025,0.188,0.037c0.055,0.014,0.105,0.023,0.152,0.038h0.387h0.311
		c0.031-0.013,0.064-0.026,0.104-0.043c0.037-0.017,0.078-0.035,0.121-0.056s0.092-0.043,0.139-0.065
		c0.051-0.024,0.104-0.051,0.156-0.08c0.055-0.028,0.104-0.052,0.144-0.075c0.041-0.023,0.075-0.046,0.104-0.065
		c0.025-0.021,0.046-0.038,0.06-0.056c0.014-0.014,0.021-0.027,0.021-0.041l-0.116-5.996h1.393l0.08,3.065h5.875l-0.165-3.065h1.651
		L89.034,77.5h5.263l0.408-1.213H95.3l0.11,1.213h3.31l-1.948-18.275C96.704,59.216,96.636,59.206,96.572,59.195z"/>
	<path fill="#FFFFFF" d="M123.747,72.456c-0.038-0.015-0.076-0.029-0.113-0.044c-0.036-0.018-0.069-0.031-0.103-0.049
		c-0.033-0.019-0.065-0.034-0.098-0.053c-0.026-0.014-0.056-0.025-0.084-0.037c-0.029-0.014-0.06-0.025-0.089-0.037
		c-0.03-0.01-0.062-0.021-0.092-0.031c-0.032-0.01-0.062-0.018-0.094-0.025c-0.03-0.011-0.062-0.021-0.089-0.031
		c-0.026-0.01-0.051-0.021-0.075-0.032c-0.024-0.013-0.046-0.023-0.065-0.034c-0.019-0.012-0.035-0.023-0.053-0.036
		c-0.014-0.005-0.036-0.012-0.064-0.021c-0.028-0.008-0.062-0.017-0.105-0.025c-0.042-0.009-0.091-0.02-0.146-0.03
		c-0.058-0.01-0.121-0.022-0.191-0.034c-0.07-0.014-0.135-0.025-0.191-0.037c-0.057-0.01-0.107-0.021-0.15-0.029
		c-0.041-0.01-0.076-0.02-0.104-0.027s-0.048-0.016-0.062-0.021c-0.01-0.006-0.023-0.017-0.043-0.028
		c-0.021-0.013-0.047-0.028-0.08-0.045c-0.028-0.019-0.067-0.042-0.11-0.065c-0.043-0.024-0.093-0.055-0.149-0.084
		c-0.055-0.029-0.105-0.058-0.15-0.082c-0.044-0.024-0.084-0.047-0.119-0.063c-0.036-0.019-0.064-0.034-0.087-0.046
		c-0.024-0.012-0.043-0.022-0.06-0.029c-0.016-0.012-0.037-0.025-0.062-0.038c-0.022-0.013-0.053-0.024-0.086-0.036
		c-0.034-0.012-0.072-0.025-0.113-0.037c-0.042-0.014-0.089-0.025-0.139-0.039c-0.052-0.012-0.099-0.023-0.14-0.035
		c-0.043-0.01-0.08-0.021-0.113-0.029c-0.032-0.008-0.061-0.016-0.084-0.023c-0.024-0.008-0.043-0.015-0.059-0.021
		c-0.02-0.007-0.041-0.013-0.065-0.019c-0.024-0.007-0.052-0.013-0.081-0.02c-0.027-0.006-0.059-0.012-0.092-0.02
		c-0.034-0.006-0.069-0.012-0.105-0.019c-0.037-0.006-0.074-0.013-0.111-0.019c-0.035-0.008-0.074-0.014-0.112-0.018
		c-0.039-0.006-0.076-0.013-0.115-0.02c-0.04-0.006-0.078-0.012-0.118-0.02c-0.041-0.006-0.081-0.012-0.117-0.017
		c-0.039-0.005-0.076-0.011-0.113-0.017c-0.035-0.004-0.072-0.008-0.107-0.012c-0.035-0.005-0.068-0.008-0.102-0.012
		c-0.033-0.002-0.062-0.006-0.09-0.008c-0.024-0.002-0.047-0.004-0.067-0.006c-0.021,0-0.036-0.004-0.05-0.004s-0.023,0-0.029,0
		h-1.427h-1.431c-0.015,0-0.035,0-0.06,0.004s-0.056,0.008-0.09,0.015c-0.036,0.006-0.078,0.014-0.125,0.022
		c-0.046,0.01-0.101,0.021-0.161,0.033c-0.057,0.014-0.109,0.025-0.158,0.039c-0.048,0.01-0.091,0.023-0.13,0.036
		c-0.036,0.013-0.069,0.024-0.097,0.038c-0.028,0.013-0.051,0.025-0.066,0.038c-0.013,0.006-0.025,0.014-0.043,0.021
		c-0.016,0.008-0.033,0.017-0.053,0.023c-0.02,0.01-0.041,0.02-0.062,0.029c-0.022,0.012-0.047,0.023-0.076,0.035
		c-0.025,0.013-0.052,0.025-0.072,0.039c-0.023,0.012-0.043,0.024-0.062,0.037c-0.019,0.01-0.037,0.023-0.051,0.036
		c-0.016,0.013-0.025,0.025-0.037,0.038c-0.006,0-0.013,0.002-0.021,0.005c-0.008,0.003-0.016,0.009-0.023,0.015
		c-0.009,0.006-0.018,0.014-0.027,0.023c-0.009,0.01-0.019,0.021-0.028,0.033c-0.011,0.012-0.022,0.023-0.029,0.036
		c-0.009,0.012-0.019,0.024-0.024,0.036c-0.008,0.013-0.015,0.025-0.021,0.037c-0.005,0.013-0.011,0.024-0.015,0.037
		c0-0.006-0.002-0.013-0.004-0.021s-0.006-0.017-0.008-0.024c-0.004-0.01-0.009-0.021-0.012-0.031
		c-0.005-0.012-0.01-0.022-0.016-0.035c-0.006-0.012-0.012-0.025-0.017-0.034s-0.009-0.021-0.013-0.029s-0.007-0.018-0.009-0.026
		c-0.003-0.006-0.005-0.014-0.005-0.021l-0.024-0.149c-0.002-0.006-0.003-0.014-0.003-0.021c-0.001-0.008,0-0.018,0.001-0.025
		c0.001-0.009,0.004-0.02,0.007-0.027c0.003-0.012,0.006-0.023,0.01-0.036l0.189-0.226c0.011-0.013,0.027-0.026,0.052-0.041
		c0.023-0.016,0.052-0.033,0.086-0.052c0.036-0.018,0.077-0.039,0.124-0.061s0.102-0.042,0.159-0.067
		c0.062-0.025,0.116-0.048,0.164-0.07c0.05-0.022,0.094-0.043,0.132-0.06c0.04-0.019,0.073-0.037,0.102-0.053
		c0.026-0.017,0.049-0.029,0.065-0.042c0.017-0.012,0.038-0.024,0.062-0.034c0.022-0.011,0.05-0.022,0.078-0.035
		c0.029-0.013,0.062-0.024,0.101-0.039c0.034-0.013,0.075-0.024,0.119-0.039c0.042-0.011,0.079-0.022,0.112-0.032
		c0.033-0.008,0.062-0.016,0.088-0.021c0.022-0.006,0.043-0.012,0.059-0.014c0.016-0.004,0.025-0.006,0.033-0.006
		c0.007,0,0.016,0,0.027,0c0.013,0,0.027,0,0.045,0s0.039,0,0.062,0s0.05,0,0.077,0s0.061,0,0.092,0
		c0.032,0,0.062-0.002,0.096-0.004c0.034,0,0.069-0.002,0.105-0.005c0.033-0.002,0.07-0.005,0.109-0.009
		c0.037-0.002,0.074-0.005,0.114-0.007c0.039-0.002,0.076-0.004,0.117-0.007c0.041,0,0.081-0.002,0.121-0.004
		c0.041,0,0.083,0,0.125,0c0.04,0,0.081,0,0.119,0c0.036,0,0.071,0,0.106,0c0.034,0,0.066,0,0.094,0c0.029,0,0.059,0,0.084,0
		s0.053,0,0.082,0c0.031,0,0.062,0,0.098,0c0.032,0,0.068,0,0.107,0c0.037,0,0.074,0,0.117,0s0.084,0,0.125,0
		c0.043,0,0.086,0.002,0.127,0.004c0.043,0.003,0.086,0.004,0.129,0.007c0.041,0.002,0.084,0.005,0.127,0.007
		c0.041,0.004,0.082,0.007,0.125,0.009c0.041,0.003,0.08,0.005,0.119,0.005c0.039,0.002,0.077,0.002,0.113,0.004
		c0.038,0,0.074,0,0.109,0c0.033,0,0.066,0,0.095,0c0.026,0,0.054,0,0.072,0c0.021,0,0.038,0,0.052,0s0.023,0,0.03,0
		c0.032,0,0.067,0.002,0.108,0.004c0.043,0,0.088,0.004,0.137,0.008c0.053,0.003,0.106,0.007,0.166,0.013
		c0.061,0.005,0.125,0.01,0.194,0.017c0.067,0.004,0.138,0.01,0.205,0.018c0.07,0.007,0.138,0.012,0.208,0.02
		c0.07,0.006,0.139,0.012,0.208,0.018c0.068,0.005,0.138,0.011,0.206,0.017c0.07,0.007,0.137,0.013,0.203,0.019
		c0.066,0.008,0.132,0.014,0.197,0.02c0.062,0.007,0.127,0.014,0.187,0.02c0.062,0.006,0.122,0.013,0.181,0.019
		c0.061,0.005,0.113,0.009,0.164,0.015c0.049,0.006,0.092,0.008,0.133,0.012c0.039,0.002,0.074,0.006,0.102,0.006
		c0.03,0.001,0.055,0.002,0.074,0.002c0.012,0,0.033,0.005,0.059,0.014c0.028,0.01,0.064,0.023,0.108,0.042
		c0.041,0.019,0.092,0.042,0.149,0.068c0.058,0.028,0.123,0.062,0.193,0.1c0.075,0.038,0.141,0.068,0.197,0.097
		c0.059,0.027,0.107,0.051,0.15,0.069s0.08,0.031,0.105,0.04c0.029,0.01,0.05,0.014,0.062,0.014
		c0.015,0.008,0.033,0.014,0.058,0.021c0.021,0.006,0.049,0.013,0.082,0.021c0.032,0.006,0.069,0.012,0.108,0.019
		c0.043,0.006,0.088,0.012,0.137,0.019c0.05,0.008,0.095,0.012,0.134,0.016c0.041,0.006,0.077,0.009,0.108,0.013
		c0.031,0.002,0.058,0.004,0.08,0.006c0.021,0.001,0.039,0.001,0.052,0.001l-4.737-20.572h-4.543
		c-0.007,0.017-0.021,0.033-0.038,0.051c-0.019,0.018-0.043,0.035-0.073,0.053c-0.031,0.02-0.062,0.038-0.104,0.059
		c-0.042,0.021-0.086,0.043-0.136,0.065c-0.053,0.024-0.101,0.043-0.144,0.06c-0.044,0.018-0.085,0.033-0.122,0.045
		s-0.07,0.02-0.101,0.025c-0.031,0.006-0.058,0.009-0.081,0.009c-0.018,0-0.039-0.003-0.062-0.009
		c-0.022-0.006-0.05-0.014-0.078-0.025c-0.03-0.012-0.063-0.027-0.101-0.045c-0.034-0.017-0.074-0.035-0.117-0.06
		c-0.043-0.022-0.081-0.044-0.116-0.065c-0.037-0.021-0.068-0.041-0.097-0.059s-0.055-0.035-0.077-0.053
		c-0.021-0.019-0.041-0.034-0.055-0.051h-14.88l3.272,27.072h4.188c0.011-0.025,0.025-0.055,0.046-0.086
		c0.021-0.029,0.047-0.062,0.079-0.1c0.029-0.037,0.066-0.075,0.111-0.115c0.041-0.041,0.088-0.085,0.144-0.129
		c0.053-0.047,0.103-0.088,0.151-0.125c0.047-0.034,0.091-0.064,0.135-0.092c0.043-0.025,0.083-0.049,0.119-0.063
		c0.039-0.017,0.074-0.028,0.104-0.036c0.014,0,0.035,0.006,0.062,0.016c0.029,0.011,0.063,0.023,0.105,0.043
		c0.043,0.021,0.094,0.045,0.15,0.074c0.058,0.029,0.122,0.062,0.193,0.104c0.073,0.04,0.139,0.075,0.197,0.104
		c0.057,0.031,0.107,0.06,0.151,0.082c0.042,0.022,0.079,0.041,0.106,0.055c0.03,0.015,0.053,0.023,0.066,0.029
		c0.025,0.01,0.062,0.018,0.107,0.025c0.041,0.008,0.096,0.018,0.158,0.027c0.06,0.01,0.129,0.021,0.207,0.031
		c0.08,0.012,0.166,0.024,0.264,0.036c0.094,0.013,0.18,0.024,0.26,0.037s0.152,0.022,0.215,0.031
		c0.066,0.011,0.123,0.021,0.171,0.028c0.052,0.009,0.093,0.015,0.127,0.021c0.025,0,0.058,0.001,0.093,0.001
		c0.033,0.002,0.073,0.003,0.116,0.004c0.043,0.002,0.091,0.006,0.144,0.008c0.052,0.002,0.106,0.006,0.168,0.01
		c0.059,0.002,0.121,0.006,0.184,0.008c0.062,0.003,0.126,0.007,0.191,0.009c0.065,0.005,0.133,0.008,0.201,0.013
		c0.067,0.004,0.137,0.008,0.209,0.01c0.068,0.004,0.139,0.006,0.205,0.008c0.067,0.002,0.133,0.004,0.199,0.006
		c0.064,0.002,0.129,0.002,0.192,0.004c0.062,0.001,0.124,0.001,0.182,0.001c0.062,0,0.116,0,0.168,0s0.099,0,0.142,0
		s0.084,0,0.117,0c0.035,0,0.066,0,0.094,0l-1.351-8.056h3.341l1.463,7.978h10.207l-1.153-5.008
		C123.826,72.482,123.786,72.469,123.747,72.456z M108.986,62.764l-1.105-6.57h2.916l1.201,6.57H108.986z"/>
</g>
<g id="tokyo">
	<path fill="#FFFFFF" d="M98.696,14.368h3.303v-3.133h-3.303V14.368z M85.193,4.606l-1.715,3.207l-1.699-3.207h-3.711l3.738,6.623
		v3.139h3.314v-3.139l3.739-6.623H85.193z M93.026,4.279c-3.06,0-5.424,2.285-5.424,5.15v0.028c0,2.865,2.336,5.122,5.396,5.122
		s5.425-2.286,5.425-5.15V9.401C98.423,6.536,96.086,4.279,93.026,4.279 M95.08,9.458c0,1.156-0.792,2.201-2.054,2.201
		c-1.274,0-2.081-1.058-2.081-2.229V9.401c0-1.157,0.792-2.202,2.053-2.202c1.275,0,2.082,1.059,2.082,2.23V9.458z M50,3.009h2.93
		v7.438h3.303V3.009h2.917V0.212H50V3.009z M64.673,0c-3.059,0-5.424,2.286-5.424,5.151V5.18c0,2.864,2.337,5.121,5.397,5.121
		s5.425-2.286,5.425-5.15V5.123C70.07,2.258,67.733,0,64.673,0 M66.728,5.18c0,1.156-0.794,2.201-2.055,2.201
		c-1.274,0-2.082-1.058-2.082-2.229V5.123c0-1.158,0.793-2.203,2.055-2.203c1.274,0,2.082,1.06,2.082,2.23V5.18z M80.678,0.251
		h-3.852l-2.82,3.74v-3.74h-3.313v9.993h3.313V8.116l0.849-1.041l1.941,3.169h3.587l-3.162-5.653L80.678,0.251z M52.93,14.368h3.303
		v-3.133H52.93V14.368z M99.205,5.988h0.312v-1.42h0.508V4.279h-1.329v0.289h0.509V5.988z M101.601,4.279l-0.452,1.217l-0.451-1.217
		h-0.421v1.709h0.303V4.753l0.442,1.211h0.23l0.444-1.196v1.22H102V4.279H101.601z"/>
</g>
</svg>
